<?xml version="1.0" encoding="utf-8"?>
<!-- Generator: Adobe Illustrator 27.2.0, SVG Export Plug-In . SVG Version: 6.00 Build 0)  -->
<svg version="1.1" id="Layer_1" xmlns="http://www.w3.org/2000/svg" xmlns:xlink="http://www.w3.org/1999/xlink" x="0px" y="0px"
	 viewBox="0 0 171.4 78.2" style="enable-background:new 0 0 171.4 78.2;" xml:space="preserve">
<style type="text/css">
	.st0{display:none;}
	.st1{fill:#FF00DB;}
	.st2{fill:#3A307A;}
	.st3{fill:#FFFFFF;}
</style>
<g>
	<path class="st1" d="M0.9,70c0-1.1,0-1.9,0-2.4h0.7c0,0.2,0,0.5,0,1.3c0.3-0.9,1-1.4,1.9-1.4v0.9c-1.2,0.1-1.8,1-1.8,2.2v4H0.9V70z
		"/>
	<path class="st1" d="M5.5,71.2C5.5,72.7,5.8,74,7,74c1.2,0,1.4-1.2,1.4-1.4h0.8c0,0.2-0.2,2.1-2.2,2.1c-2,0-2.3-1.9-2.3-3.6
		c0-2.2,0.7-3.6,2.3-3.6c1.8,0,2.2,1.5,2.2,3.2c0,0.1,0,0.3,0,0.5H5.5z M8.4,70.6c0-1.4-0.3-2.4-1.4-2.4c-1.4,0-1.5,1.9-1.5,2.4H8.4
		z"/>
	<path class="st1" d="M11.2,74.6v-9.8H12v9.8H11.2z"/>
	<path class="st1" d="M14.8,71.2c0,1.5,0.3,2.8,1.5,2.8c1.2,0,1.4-1.2,1.4-1.4h0.8c0,0.2-0.2,2.1-2.2,2.1c-2,0-2.3-1.9-2.3-3.6
		c0-2.2,0.7-3.6,2.3-3.6c1.8,0,2.2,1.5,2.2,3.2c0,0.1,0,0.3,0,0.5H14.8z M17.7,70.6c0-1.4-0.3-2.4-1.4-2.4c-1.4,0-1.5,1.9-1.5,2.4
		H17.7z"/>
	<path class="st1" d="M24.3,73.5c0,0.5,0,0.9,0.1,1.1h-0.7c0-0.2-0.1-0.6-0.1-0.8c-0.2,0.6-0.8,1-1.7,1c-1.3,0-1.8-1-1.8-2
		c0-1.2,0.8-2.2,2.7-2.2c0.4,0,0.6,0,0.8,0v-1c0-0.6-0.1-1.4-1.2-1.4c-1.2,0-1.2,0.8-1.3,1.3h-0.8c0-1,0.5-2,2-2
		c1.3,0,1.9,0.6,1.9,1.9V73.5z M23.6,71.2c-0.2,0-0.4,0-0.8,0c-1.4,0-1.9,0.7-1.9,1.5c0,0.7,0.4,1.4,1.2,1.4c1.1,0,1.5-0.7,1.5-2.4
		V71.2z"/>
	<path class="st1" d="M26.9,72.6c0.1,0.8,0.5,1.4,1.4,1.4c0.8,0,1.2-0.5,1.2-1.2c0-0.8-0.4-1.2-1.4-1.5c-1.4-0.5-1.8-1-1.8-2
		c0-0.9,0.6-1.8,1.9-1.8c1.5,0,1.9,1,1.9,1.9h-0.8c0-0.4-0.1-1.2-1.2-1.2c-0.7,0-1.1,0.5-1.1,1.1c0,0.6,0.2,0.9,1.3,1.3
		c1.3,0.5,1.9,1,1.9,2.2c0,1.2-0.8,2-2.1,2c-1.3,0-2-0.8-2.1-2.1H26.9z"/>
	<path class="st1" d="M32.2,66.1v-1.4H33v1.4H32.2z M32.2,67.6H33v6.9h-0.8V67.6z"/>
	<path class="st1" d="M35.4,69.8c0-1.4,0-1.8,0-2.1h0.7c0,0.2,0,0.4,0,1c0.2-0.6,0.7-1.1,1.7-1.1c1,0,1.8,0.5,1.8,2.1v4.9h-0.8v-4.8
		c0-0.9-0.3-1.5-1.2-1.5c-1.1,0-1.5,0.7-1.5,2.3v4.1h-0.8V69.8z"/>
	<path class="st1" d="M46.3,74.2c0,1.8-0.4,3.1-2.3,3.1c-1.7,0-2.1-1.2-2.1-1.9h0.8c0,0.4,0.3,1.2,1.4,1.2c1.3,0,1.5-0.9,1.5-2.4
		v-0.8c-0.2,0.8-0.8,1.1-1.7,1.1c-1.4,0-2.1-1.1-2.1-3.4c0-2.5,1-3.7,2.3-3.7c1,0,1.4,0.5,1.5,1c0-0.3,0-0.7,0.1-0.9h0.7
		c0,0.3,0,1,0,2V74.2z M44,73.9c1.2,0,1.5-1.2,1.5-2.8c0-1.8-0.3-2.8-1.4-2.8c-1,0-1.5,1-1.5,3C42.6,73,43.1,73.9,44,73.9z"/>
	<path class="st1" d="M52.1,77.2v-7.5c0-1,0-1.6,0-2h0.7c0,0.1,0,0.6,0,1c0.2-0.7,0.8-1.1,1.7-1.1c1.3,0,2,1.2,2,3.5
		c0,2.4-0.9,3.7-2.2,3.7c-0.9,0-1.3-0.4-1.5-0.9v3.3H52.1z M54.3,68.2c-1.2,0-1.5,1.1-1.5,2.9c0,1.7,0.2,2.9,1.4,2.9
		c1,0,1.5-1.2,1.5-2.9C55.8,69.3,55.3,68.2,54.3,68.2z"/>
	<path class="st1" d="M59.1,71.2c0,1.5,0.3,2.8,1.5,2.8c1.2,0,1.4-1.2,1.4-1.4h0.8c0,0.2-0.2,2.1-2.2,2.1c-2,0-2.3-1.9-2.3-3.6
		c0-2.2,0.7-3.6,2.3-3.6c1.8,0,2.2,1.5,2.2,3.2c0,0.1,0,0.3,0,0.5H59.1z M62,70.6c0-1.4-0.3-2.4-1.4-2.4c-1.4,0-1.5,1.9-1.5,2.4H62z
		"/>
	<path class="st1" d="M69.2,71c0,2.4-0.8,3.7-2.3,3.7c-1.6,0-2.3-1.2-2.3-3.7c0-2.4,0.9-3.5,2.3-3.5C68.4,67.5,69.2,68.7,69.2,71z
		 M65.4,71c0,2,0.6,3,1.5,3s1.5-1,1.5-3c0-1.9-0.5-2.8-1.5-2.8C65.9,68.2,65.4,69,65.4,71z"/>
	<path class="st1" d="M71.2,77.2v-7.5c0-1,0-1.6,0-2H72c0,0.1,0,0.6,0,1c0.2-0.7,0.8-1.1,1.7-1.1c1.3,0,2,1.2,2,3.5
		c0,2.4-0.9,3.7-2.2,3.7c-0.9,0-1.3-0.4-1.5-0.9v3.3H71.2z M73.5,68.2c-1.2,0-1.5,1.1-1.5,2.9c0,1.7,0.2,2.9,1.4,2.9
		c1,0,1.5-1.2,1.5-2.9C74.9,69.3,74.5,68.2,73.5,68.2z"/>
	<path class="st1" d="M77.8,74.6v-9.8h0.8v9.8H77.8z"/>
	<path class="st1" d="M81.4,71.2c0,1.5,0.3,2.8,1.5,2.8c1.2,0,1.4-1.2,1.4-1.4h0.8c0,0.2-0.2,2.1-2.2,2.1c-2,0-2.3-1.9-2.3-3.6
		c0-2.2,0.7-3.6,2.3-3.6c1.8,0,2.2,1.5,2.2,3.2c0,0.1,0,0.3,0,0.5H81.4z M84.3,70.6c0-1.4-0.3-2.4-1.4-2.4c-1.4,0-1.5,1.9-1.5,2.4
		H84.3z"/>
	<path class="st1" d="M94.3,73.5c0,0.5,0,0.9,0.1,1.1h-0.7c0-0.2-0.1-0.6-0.1-0.8c-0.2,0.6-0.8,1-1.7,1c-1.3,0-1.8-1-1.8-2
		c0-1.2,0.8-2.2,2.7-2.2c0.4,0,0.6,0,0.8,0v-1c0-0.6-0.1-1.4-1.2-1.4c-1.2,0-1.2,0.8-1.3,1.3h-0.8c0-1,0.5-2,2-2
		c1.3,0,1.9,0.6,1.9,1.9V73.5z M93.6,71.2c-0.2,0-0.4,0-0.8,0c-1.4,0-1.9,0.7-1.9,1.5c0,0.7,0.4,1.4,1.2,1.4c1.1,0,1.5-0.7,1.5-2.4
		V71.2z"/>
	<path class="st1" d="M96.8,69.8c0-1.4,0-1.8,0-2.1h0.7c0,0.2,0,0.4,0,1c0.2-0.6,0.7-1.1,1.7-1.1s1.8,0.5,1.8,2.1v4.9h-0.8v-4.8
		c0-0.9-0.3-1.5-1.2-1.5c-1.1,0-1.5,0.7-1.5,2.3v4.1h-0.8V69.8z"/>
	<path class="st1" d="M107.2,73.5c0,0.5,0,0.9,0.1,1.1h-0.7c0-0.2-0.1-0.6-0.1-0.8c-0.2,0.6-0.8,1-1.7,1c-1.3,0-1.8-1-1.8-2
		c0-1.2,0.8-2.2,2.7-2.2c0.4,0,0.6,0,0.8,0v-1c0-0.6-0.1-1.4-1.2-1.4c-1.2,0-1.2,0.8-1.3,1.3h-0.8c0-1,0.5-2,2-2
		c1.3,0,1.9,0.6,1.9,1.9V73.5z M106.4,71.2c-0.2,0-0.4,0-0.8,0c-1.4,0-1.9,0.7-1.9,1.5c0,0.7,0.4,1.4,1.2,1.4c1.1,0,1.5-0.7,1.5-2.4
		V71.2z"/>
	<path class="st1" d="M109.6,74.6v-9.8h0.8v9.8H109.6z"/>
	<path class="st1" d="M113,67.6c0.8,3.2,1.5,5.3,1.5,6h0c0.1-0.7,0.8-3.2,1.5-6h0.8l-2,7.3c-0.6,2-1,2.3-2,2.3c-0.1,0-0.3,0-0.5,0
		v-0.7c0.1,0,0.3,0,0.4,0c0.8,0,1-0.6,1.3-1.8l-2-7.1H113z"/>
	<path class="st1" d="M118.3,67.6h1v-1.9h0.8v1.9h1.3v0.7H120v4.8c0,0.5,0.1,0.8,0.6,0.8c0.2,0,0.4,0,0.5,0v0.6
		c-0.2,0.1-0.5,0.1-0.8,0.1c-0.7,0-1.2-0.3-1.2-1.3v-5h-1V67.6z"/>
	<path class="st1" d="M123,66.1v-1.4h0.8v1.4H123z M123,67.6h0.8v6.9H123V67.6z"/>
	<path class="st1" d="M130.2,72.6c0,0.3-0.2,2.2-2.1,2.2c-1.7,0-2.2-1.6-2.2-3.6c0-2,0.6-3.6,2.3-3.6c1.9,0,2,1.8,2,2.1h-0.8
		c0-0.3-0.1-1.4-1.2-1.4c-1.1,0-1.5,1.2-1.5,2.9c0,1.8,0.4,2.9,1.5,2.9c1.1,0,1.2-1.1,1.3-1.5H130.2z"/>
	<path class="st1" d="M132.6,72.6c0.1,0.8,0.5,1.4,1.4,1.4c0.8,0,1.2-0.5,1.2-1.2c0-0.8-0.4-1.2-1.4-1.5c-1.4-0.5-1.8-1-1.8-2
		c0-0.9,0.6-1.8,1.9-1.8c1.5,0,1.9,1,1.9,1.9h-0.8c0-0.4-0.1-1.2-1.2-1.2c-0.7,0-1.1,0.5-1.1,1.1c0,0.6,0.2,0.9,1.3,1.3
		c1.3,0.5,1.9,1,1.9,2.2c0,1.2-0.8,2-2.1,2c-1.3,0-2-0.8-2.1-2.1H132.6z"/>
</g>
<g>
	<path class="st2" d="M37.6,16.7v38.5H26.8V40.3H11.9v15H1V16.7h10.8v14.4h14.9V16.7H37.6z"/>
</g>
<g>
	<path class="st2" d="M62.2,45h-6v10.2H45.4V16.7h17.6C73.4,16.7,80,22.2,80,31c0,5.6-2.8,9.8-7.5,12.1l8.3,12.1H69.2L62.2,45z
		 M62.3,25.4h-6.1v11.3h6.1c4.5,0,6.8-2,6.8-5.6C69,27.4,66.7,25.4,62.3,25.4z"/>
</g>
<g>
	<path class="st2" d="M84.1,36c0-11.7,8.9-20,21.1-20c7.1,0,12.9,2.5,16.6,7.3l-6.9,6.2c-2.4-2.9-5.3-4.5-9-4.5
		c-6.4,0-10.7,4.5-10.7,11s4.3,11,10.7,11c3.7,0,6.6-1.5,9-4.5l6.9,6.2c-3.7,4.7-9.4,7.3-16.6,7.3C93,56,84.1,47.7,84.1,36z"/>
</g>
<g>
	<path class="st1" d="M169,2c1.9,1.9,1.9,5.1,0,7.1c-1.3,1.3-2.9,1.7-4.5,1.4c-0.8,0-1.4,0.3-1.9,0.9l-6.2,6.2
		c-0.5,0.5-0.8,1.3-0.9,1.9c0.3,1.5-0.1,3.3-1.4,4.5c-1.9,1.9-5.1,1.9-7.1,0c-1.9-1.9-1.9-5.1,0-7c1.3-1.3,2.9-1.7,4.5-1.4
		c0.6,0,1.4-0.4,1.9-0.9l6.2-6.2c0.5-0.5,0.8-1.3,0.9-1.9c-0.3-1.5,0.1-3.3,1.4-4.5C163.9-0.1,167.1-0.1,169,2z"/>
</g>
<g>
	<path class="st2" d="M162.8,17.8c-1.3,1.3-1.7,2.9-1.4,4.5c0,0.6-0.3,1.4-0.9,1.9l-6.2,6.2c-0.5,0.5-1.1,0.8-1.9,0.9
		c-1.5-0.3-3.3,0.1-4.5,1.4c-1.9,1.9-1.9,5.1,0,7s5.1,1.9,7.1,0c1.3-1.3,1.7-2.9,1.4-4.5c0-0.6,0.4-1.4,0.9-1.9l6.2-6.2
		c0.5-0.5,1.3-0.8,1.9-0.9c1.5,0.3,3.3-0.1,4.5-1.4c1.9-1.9,1.9-5.1,0-7C167.9,15.8,164.7,15.8,162.8,17.8z"/>
</g>
<g>
	<path class="st2" d="M134.1,32c-2,0-3.8-0.5-5.5-1.4v24.5h9.7V31.3C137.1,31.8,135.7,32,134.1,32z"/>
</g>
<g>
	<path class="st2" d="M145.1,1.4c-1.3,1.3-1.7,2.9-1.4,4.5c0,0.6-0.3,1.4-0.9,1.9l-6.2,6.2c-0.5,0.5-1.1,0.8-1.9,0.9
		c-1.5-0.3-3.3,0.1-4.5,1.4c-1.9,1.9-1.9,5.1,0,7s5.1,1.9,7.1,0c1.3-1.3,1.7-2.9,1.4-4.5c0-0.6,0.4-1.4,0.9-1.9l6.2-6.2
		c0.5-0.5,1.1-0.8,1.9-0.9c1.5,0.3,3.3-0.1,4.5-1.4c1.9-1.9,1.9-5.1,0-7.1C150.2-0.5,147-0.5,145.1,1.4z"/>
</g>
</svg>
