
<svg xmlns="http://www.w3.org/2000/svg" id="SvgjsSvg5669" width="1000" height="1000" version="1.1" xmlns:xlink="http://www.w3.org/1999/xlink" xmlns:svgjs="http://svgjs.com/svgjs">
<defs id="SvgjsDefs5670">
</defs>
<g id="SvgjsG5671" transform="scale(34.4)" opacity="1">
<defs id="SvgjsDefs2314">
</defs>
<g id="SvgjsG2315" transform="scale(0.1985821720004352)" opacity="1">
<g id="SvgjsG2316" class="ygW084ka1" transform="translate(0, 0) scale(0.5357151422464991)" light-content="false" non-strokable="false" fill="#a31930">
<path d="M219.6 48.1c-22.9-22.9-53.4-35.5-85.8-35.5S71 25.2 48.1 48.1s-35.5 53.4-35.5 85.8 12.6 62.9 35.5 85.8 53.4 35.5 85.8 35.5 62.9-12.6 85.8-35.5 35.5-53.4 35.5-85.8-12.7-62.9-35.6-85.8z">
</path>
<path d="M133.8 0C59.9 0 0 59.9 0 133.8s59.9 133.8 133.8 133.8 133.8-59.9 133.8-133.8S207.8 0 133.8 0zm0 260.1c-69.7 0-126.3-56.5-126.3-126.3S64.1 7.6 133.8 7.6s126.3 56.5 126.3 126.3-56.5 126.2-126.3 126.2z">
</path>
</g>
<g id="SvgjsG2317" class="h7XSWjKK3m" transform="translate(0.28717948378675473, 0.21576119148087258) scale(1.4283658461181423)" light-content="true" non-strokable="false" fill="#ffffff">
<circle cx="63" cy="40.5" r="4.4">
</circle>
<path d="M66.3 46.3h-6.5c-2.5 0-4.6 2-4.6 4.6v9.3c0 2.2 1.5 4.1 3.7 4.5v10.1c0 1.8 1.5 3.4 3.3 3.4h1.5c1.9 0 3.4-1.5 3.4-3.4v-10c2.2-.4 3.7-2.3 3.7-4.5V51c0-2.6-2-4.7-4.5-4.7z">
</path>
<circle cx="34.6" cy="56.8" r="2.5">
</circle>
<path d="M36.4 60.1h-3.7c-1.5 0-2.6 1.1-2.6 2.6v5.2c0 1.3.9 2.3 2.1 2.5v5.7c0 1.1.9 1.9 1.9 1.9h.8c1.1 0 1.9-.9 1.9-1.9v-5.7c1.2-.3 2.1-1.3 2.1-2.5v-5.2c.1-1.4-1.1-2.6-2.5-2.6z">
</path>
<circle cx="47.1" cy="49.8" r="3.4">
</circle>
<path d="M49.5 54.1h-4.9c-1.9 0-3.4 1.5-3.4 3.4v7c0 1.7 1.2 3 2.8 3.4v7.6c0 1.4 1.2 2.5 2.5 2.5h1.1c1.4 0 2.5-1.2 2.5-2.5v-7.6c1.6-.3 2.8-1.8 2.8-3.4v-7c.1-1.8-1.5-3.4-3.4-3.4zm18.6-24.6l-1-7.6-7.6 1-2.8 3.7 5-.7c-.2.3-.5.6-.8 1-.5.7-1.2 1.4-1.8 2.1-.7.8-1.4 1.6-2.2 2.5-.8.8-1.7 1.8-2.6 2.7-1 .9-1.9 1.8-2.9 2.7-1 .9-2.1 1.8-3.2 2.7l-1.6 1.3c-.6.4-1.1.8-1.7 1.2-1.1.8-2.2 1.6-3.3 2.3-2.2 1.4-4.3 2.7-6.1 3.7-3.7 2-6.3 3.1-6.3 3.1s2.7-.8 6.5-2.6c1.9-.9 4.1-2 6.5-3.2 1.2-.7 2.4-1.3 3.5-2.1.6-.4 1.2-.7 1.8-1.1l1.8-1.2c1.2-.8 2.3-1.6 3.5-2.4 1.1-.8 2.2-1.7 3.2-2.5 1.1-.8 2-1.7 2.9-2.5.9-.8 1.8-1.6 2.5-2.4.8-.8 1.5-1.4 2.1-2.1.4-.5.8-.9 1.1-1.2l.7 5.3 2.8-3.7z">
</path>
</g>
</g>
</g>
</svg>