<svg xmlns="http://www.w3.org/2000/svg" id="SvgjsSvg5669" width="4096" height="1635.6726692631582" version="1.1" xmlns:xlink="http://www.w3.org/1999/xlink" xmlns:svgjs="http://svgjs.com/svgjs"><defs id="SvgjsDefs5670"></defs><g id="SvgjsG5671" transform="translate(328, 327.99999999999994) scale(34.4)" opacity="1"><defs id="SvgjsDefs2314"></defs><g id="SvgjsG2315" transform="scale(0.1985821720004352)" opacity="1"><g id="SvgjsG2316" class="ygW084ka1" transform="translate(0, 0) scale(0.5357151422464991)" light-content="false" non-strokable="false" fill="#a31930"><path d="M219.6 48.1c-22.9-22.9-53.4-35.5-85.8-35.5S71 25.2 48.1 48.1s-35.5 53.4-35.5 85.8 12.6 62.9 35.5 85.8 53.4 35.5 85.8 35.5 62.9-12.6 85.8-35.5 35.5-53.4 35.5-85.8-12.7-62.9-35.6-85.8z"></path><path d="M133.8 0C59.9 0 0 59.9 0 133.8s59.9 133.8 133.8 133.8 133.8-59.9 133.8-133.8S207.8 0 133.8 0zm0 260.1c-69.7 0-126.3-56.5-126.3-126.3S64.1 7.6 133.8 7.6s126.3 56.5 126.3 126.3-56.5 126.2-126.3 126.2z"></path></g><g id="SvgjsG2317" class="h7XSWjKK3m" transform="translate(0.28717948378675473, 0.21576119148087258) scale(1.4283658461181423)" light-content="true" non-strokable="false" fill="#ffffff"><circle cx="63" cy="40.5" r="4.4"></circle><path d="M66.3 46.3h-6.5c-2.5 0-4.6 2-4.6 4.6v9.3c0 2.2 1.5 4.1 3.7 4.5v10.1c0 1.8 1.5 3.4 3.3 3.4h1.5c1.9 0 3.4-1.5 3.4-3.4v-10c2.2-.4 3.7-2.3 3.7-4.5V51c0-2.6-2-4.7-4.5-4.7z"></path><circle cx="34.6" cy="56.8" r="2.5"></circle><path d="M36.4 60.1h-3.7c-1.5 0-2.6 1.1-2.6 2.6v5.2c0 1.3.9 2.3 2.1 2.5v5.7c0 1.1.9 1.9 1.9 1.9h.8c1.1 0 1.9-.9 1.9-1.9v-5.7c1.2-.3 2.1-1.3 2.1-2.5v-5.2c.1-1.4-1.1-2.6-2.5-2.6z"></path><circle cx="47.1" cy="49.8" r="3.4"></circle><path d="M49.5 54.1h-4.9c-1.9 0-3.4 1.5-3.4 3.4v7c0 1.7 1.2 3 2.8 3.4v7.6c0 1.4 1.2 2.5 2.5 2.5h1.1c1.4 0 2.5-1.2 2.5-2.5v-7.6c1.6-.3 2.8-1.8 2.8-3.4v-7c.1-1.8-1.5-3.4-3.4-3.4zm18.6-24.6l-1-7.6-7.6 1-2.8 3.7 5-.7c-.2.3-.5.6-.8 1-.5.7-1.2 1.4-1.8 2.1-.7.8-1.4 1.6-2.2 2.5-.8.8-1.7 1.8-2.6 2.7-1 .9-1.9 1.8-2.9 2.7-1 .9-2.1 1.8-3.2 2.7l-1.6 1.3c-.6.4-1.1.8-1.7 1.2-1.1.8-2.2 1.6-3.3 2.3-2.2 1.4-4.3 2.7-6.1 3.7-3.7 2-6.3 3.1-6.3 3.1s2.7-.8 6.5-2.6c1.9-.9 4.1-2 6.5-3.2 1.2-.7 2.4-1.3 3.5-2.1.6-.4 1.2-.7 1.8-1.1l1.8-1.2c1.2-.8 2.3-1.6 3.5-2.4 1.1-.8 2.2-1.7 3.2-2.5 1.1-.8 2-1.7 2.9-2.5.9-.8 1.8-1.6 2.5-2.4.8-.8 1.5-1.4 2.1-2.1.4-.5.8-.9 1.1-1.2l.7 5.3 2.8-3.7z"></path></g><g id="SvgjsG2318" class="text" transform="translate(336.5891130735727, 86.1405238177767) scale(1)" light-content="false" fill="#a31930"><path d="M-163.67 0.48C-159.54 0.16 -156.04 0 -153.17 0C-150.12 0 -146.51 0.16 -142.32 0.48C-141.67 0.01 -141.2 -0.92 -140.89 -2.31C-140.58 -3.7 -140.43 -5.16 -140.43 -6.68C-140.43 -7.38 -140.91 -7.91 -141.88 -8.26C-142.84 -8.61 -144 -8.79 -145.35 -8.79C-145.99 -8.79 -146.52 -8.87 -146.93 -9.03C-147.34 -9.19 -147.63 -9.43 -147.79 -9.76C-147.95 -10.08 -148.05 -10.36 -148.1 -10.61C-148.14 -10.86 -148.16 -11.21 -148.16 -11.65L-148.16 -30.15C-148.16 -30.76 -147.88 -31.07 -147.33 -31.07L-112.7 -31.07C-112.14 -31.07 -111.86 -30.76 -111.86 -30.15L-111.86 -11.56C-111.86 -10.68 -112.04 -10 -112.39 -9.51C-112.74 -9.03 -113.49 -8.79 -114.63 -8.79C-115.98 -8.79 -117.14 -8.61 -118.1 -8.26C-119.07 -7.91 -119.55 -7.38 -119.55 -6.68C-119.55 -5.19 -119.36 -3.74 -118.98 -2.33C-118.6 -0.92 -118.02 0.01 -117.22 0.48C-113.09 0.16 -109.59 0 -106.72 0C-103.67 0 -100.06 0.16 -95.87 0.48C-95.22 0.01 -94.75 -0.92 -94.44 -2.31C-94.13 -3.7 -93.98 -5.16 -93.98 -6.68C-93.98 -7.38 -94.46 -7.91 -95.43 -8.26C-96.39 -8.61 -97.55 -8.79 -98.9 -8.79C-99.54 -8.79 -100.07 -8.87 -100.48 -9.03C-100.89 -9.19 -101.18 -9.43 -101.34 -9.76C-101.5 -10.08 -101.6 -10.36 -101.65 -10.61C-101.69 -10.86 -101.71 -11.21 -101.71 -11.65L-101.71 -53.83C-101.71 -54.27 -101.69 -54.62 -101.65 -54.87C-101.6 -55.11 -101.5 -55.4 -101.34 -55.72C-101.18 -56.04 -100.89 -56.29 -100.48 -56.45C-100.07 -56.61 -99.54 -56.69 -98.9 -56.69C-97.55 -56.69 -96.39 -56.87 -95.43 -57.22C-94.46 -57.57 -93.98 -58.1 -93.98 -58.8C-93.98 -60.32 -94.13 -61.79 -94.44 -63.19C-94.75 -64.6 -95.22 -65.54 -95.87 -66.01C-100.44 -65.65 -104.06 -65.48 -106.72 -65.48C-109.21 -65.48 -112.71 -65.65 -117.22 -66.01C-118.02 -65.54 -118.6 -64.6 -118.98 -63.19C-119.36 -61.79 -119.55 -60.32 -119.55 -58.8C-119.55 -58.1 -119.07 -57.57 -118.1 -57.22C-117.14 -56.87 -115.98 -56.69 -114.63 -56.69C-113.49 -56.69 -112.74 -56.45 -112.39 -55.96C-112.04 -55.48 -111.86 -54.8 -111.86 -53.92L-111.86 -38.85C-111.86 -38.23 -112.14 -37.92 -112.7 -37.92L-147.33 -37.92C-147.88 -37.92 -148.16 -38.23 -148.16 -38.85L-148.16 -53.83C-148.16 -54.27 -148.14 -54.62 -148.1 -54.87C-148.05 -55.11 -147.95 -55.4 -147.79 -55.72C-147.63 -56.04 -147.34 -56.29 -146.93 -56.45C-146.52 -56.61 -145.99 -56.69 -145.35 -56.69C-144 -56.69 -142.84 -56.87 -141.88 -57.22C-140.91 -57.57 -140.43 -58.1 -140.43 -58.8C-140.43 -60.32 -140.58 -61.79 -140.89 -63.19C-141.2 -64.6 -141.67 -65.54 -142.32 -66.01C-146.89 -65.65 -150.51 -65.48 -153.17 -65.48C-155.31 -65.48 -158.81 -65.67 -163.67 -66.05C-164.47 -65.61 -165.05 -64.69 -165.43 -63.3C-165.81 -61.91 -166 -60.5 -166 -59.06C-166 -57.54 -164.36 -56.78 -161.08 -56.78C-159.94 -56.78 -159.19 -56.54 -158.84 -56.05C-158.49 -55.57 -158.31 -54.89 -158.31 -54.01L-158.31 -11.56C-158.31 -10.68 -158.49 -10 -158.84 -9.51C-159.19 -9.03 -159.94 -8.79 -161.08 -8.79C-162.43 -8.79 -163.59 -8.61 -164.55 -8.26C-165.52 -7.91 -166 -7.38 -166 -6.68C-166 -5.19 -165.81 -3.74 -165.43 -2.33C-165.05 -0.92 -164.47 0.01 -163.67 0.48Z M-70.86 -37.05L-70.86 -58.1L-53.46 -58.1C-49.42 -58.1 -46.29 -57.02 -44.08 -54.87C-41.87 -52.71 -40.76 -50.16 -40.76 -47.2C-40.76 -44.47 -41.81 -42.1 -43.92 -40.08C-46.03 -38.06 -48.92 -37.05 -52.58 -37.05ZM-86.37 -66.05C-87.17 -65.61 -87.75 -64.69 -88.13 -63.3C-88.51 -61.91 -88.7 -60.5 -88.7 -59.06C-88.7 -57.54 -87.06 -56.78 -83.78 -56.78C-82.64 -56.78 -81.89 -56.54 -81.54 -56.05C-81.19 -55.57 -81.01 -54.89 -81.01 -54.01L-81.01 -11.56C-81.01 -10.68 -81.19 -10 -81.54 -9.51C-81.89 -9.03 -82.64 -8.79 -83.78 -8.79C-85.13 -8.79 -86.29 -8.61 -87.25 -8.26C-88.22 -7.91 -88.7 -7.38 -88.7 -6.68C-88.7 -5.19 -88.51 -3.74 -88.13 -2.33C-87.75 -0.92 -87.17 0.01 -86.37 0.48C-82.07 0.16 -78.57 0 -75.87 0C-72.74 0 -68.97 0.16 -64.58 0.48C-63.61 -0.4 -63.13 -2.78 -63.13 -6.68C-63.13 -7.38 -63.61 -7.91 -64.58 -8.26C-65.54 -8.61 -66.7 -8.79 -68.05 -8.79C-68.69 -8.79 -69.22 -8.87 -69.63 -9.03C-70.04 -9.19 -70.33 -9.43 -70.49 -9.76C-70.65 -10.08 -70.75 -10.36 -70.8 -10.61C-70.84 -10.86 -70.86 -11.21 -70.86 -11.65L-70.86 -29.62L-61.55 -29.62C-59.44 -29.3 -57.57 -28.68 -55.94 -27.77C-54.32 -26.87 -52.98 -25.79 -51.94 -24.54C-50.9 -23.3 -49.98 -21.91 -49.17 -20.37C-48.37 -18.83 -47.68 -17.26 -47.11 -15.64C-46.54 -14.03 -45.97 -12.44 -45.4 -10.85C-44.82 -9.27 -44.19 -7.78 -43.48 -6.37C-42.78 -4.97 -41.97 -3.73 -41.04 -2.66C-40.12 -1.59 -38.95 -0.74 -37.53 -0.11C-36.11 0.52 -34.46 0.83 -32.59 0.83C-30.68 0.83 -29.13 0.67 -27.93 0.33C-26.73 -0.01 -25.86 -0.52 -25.33 -1.21C-24.81 -1.9 -24.47 -2.55 -24.32 -3.16C-24.18 -3.78 -24.1 -4.58 -24.1 -5.58L-24.1 -7.21C-24.1 -7.97 -26.18 -8.35 -30.34 -8.35C-31.75 -8.35 -32.94 -9 -33.9 -10.31C-34.87 -11.61 -35.7 -13.25 -36.39 -15.23C-37.08 -17.2 -37.82 -19.23 -38.63 -21.29C-39.43 -23.36 -40.63 -25.31 -42.21 -27.14C-43.79 -28.97 -45.7 -30.25 -47.92 -30.98C-45.73 -31.07 -43.67 -31.47 -41.75 -32.19C-39.83 -32.91 -38.2 -33.82 -36.87 -34.91C-35.54 -36.01 -34.39 -37.26 -33.42 -38.65C-32.45 -40.04 -31.74 -41.49 -31.29 -43C-30.83 -44.51 -30.61 -46.01 -30.61 -47.5C-30.61 -49.88 -31.09 -52.16 -32.06 -54.36C-33.02 -56.56 -34.42 -58.54 -36.25 -60.31C-38.09 -62.09 -40.49 -63.51 -43.46 -64.58C-46.44 -65.65 -49.77 -66.18 -53.46 -66.18C-54.66 -66.18 -57.13 -66.06 -60.86 -65.83C-64.6 -65.6 -67.71 -65.48 -70.2 -65.48C-77.12 -65.48 -82.51 -65.67 -86.37 -66.05Z M32.37 -43.68C32.95 -43.74 33.37 -43.86 33.62 -44.06C33.87 -44.25 34.07 -44.73 34.23 -45.51C34.39 -46.28 34.48 -47.5 34.48 -49.17L34.48 -60.91C34.48 -63.96 33.77 -65.48 32.37 -65.48L27.44 -65.48C26.3 -65.48 25.73 -63.28 25.73 -58.89C23.91 -61.38 21.53 -63.26 18.59 -64.53C15.64 -65.81 12.74 -66.45 9.87 -66.45C5.35 -66.45 1.15 -65.53 -2.75 -63.7C-6.64 -61.87 -9.91 -59.4 -12.55 -56.29C-15.18 -53.19 -17.25 -49.56 -18.74 -45.4C-20.24 -41.24 -20.98 -36.86 -20.98 -32.26C-20.98 -28.86 -20.55 -25.56 -19.69 -22.37C-18.82 -19.17 -17.46 -16.15 -15.6 -13.29C-13.74 -10.44 -11.49 -7.94 -8.85 -5.8C-6.22 -3.66 -3 -1.96 0.79 -0.7C4.58 0.56 8.74 1.19 13.25 1.19C16.62 1.19 19.96 0.73 23.27 -0.18C26.58 -1.08 29.37 -2.42 31.64 -4.2C33.91 -5.97 35.05 -7.91 35.05 -10.02C35.05 -11.48 34.48 -12.98 33.33 -14.5C27.56 -10.2 21.26 -8.04 14.44 -8.04C11.24 -8.04 8.28 -8.5 5.56 -9.43C2.83 -10.35 0.51 -11.59 -1.41 -13.16C-3.33 -14.73 -4.97 -16.55 -6.33 -18.63C-7.69 -20.71 -8.7 -22.92 -9.36 -25.25C-10.02 -27.58 -10.35 -29.97 -10.35 -32.43C-10.35 -35.01 -10.08 -37.53 -9.54 -39.99C-8.99 -42.45 -8.14 -44.79 -6.99 -47C-5.83 -49.21 -4.45 -51.15 -2.83 -52.8C-1.22 -54.46 0.74 -55.77 3.05 -56.76C5.37 -57.74 7.89 -58.23 10.61 -58.23C12.17 -58.23 13.67 -57.96 15.12 -57.41C16.57 -56.87 17.83 -56.18 18.9 -55.33C19.97 -54.48 20.98 -53.54 21.93 -52.51C22.88 -51.49 23.71 -50.46 24.41 -49.42C25.11 -48.38 25.74 -47.43 26.28 -46.58C26.82 -45.73 27.3 -45.04 27.71 -44.49C28.12 -43.95 28.45 -43.68 28.72 -43.68Z M41.42 -66.05C40.63 -65.61 40.04 -64.69 39.66 -63.3C39.28 -61.91 39.09 -60.5 39.09 -59.06C39.09 -57.54 40.73 -56.78 44.01 -56.78C45.15 -56.78 45.9 -56.54 46.25 -56.05C46.6 -55.57 46.78 -54.89 46.78 -54.01L46.78 -11.56C46.78 -10.68 46.6 -10 46.25 -9.51C45.9 -9.03 45.15 -8.79 44.01 -8.79C42.66 -8.79 41.51 -8.61 40.54 -8.26C39.57 -7.91 39.09 -7.38 39.09 -6.68C39.09 -5.19 39.28 -3.74 39.66 -2.33C40.04 -0.92 40.63 0.01 41.42 0.48C45.55 0.16 49.05 0 51.92 0C54.97 0 58.59 0.16 62.78 0.48C63.42 0.01 63.9 -0.92 64.2 -2.31C64.51 -3.7 64.67 -5.16 64.67 -6.68C64.67 -7.38 64.18 -7.91 63.22 -8.26C62.25 -8.61 61.09 -8.79 59.74 -8.79C59.1 -8.79 58.57 -8.87 58.16 -9.03C57.75 -9.19 57.47 -9.43 57.3 -9.76C57.14 -10.08 57.04 -10.36 57 -10.61C56.95 -10.86 56.93 -11.21 56.93 -11.65L56.93 -53.83C56.93 -54.27 56.95 -54.62 57 -54.87C57.04 -55.11 57.14 -55.4 57.3 -55.72C57.47 -56.04 57.75 -56.29 58.16 -56.45C58.57 -56.61 59.1 -56.69 59.74 -56.69C61.09 -56.69 62.25 -56.87 63.22 -57.22C64.18 -57.57 64.67 -58.1 64.67 -58.8C64.67 -60.32 64.51 -61.79 64.2 -63.22C63.9 -64.64 63.42 -65.58 62.78 -66.05C57.82 -65.67 54.21 -65.48 51.92 -65.48C49.78 -65.48 46.28 -65.67 41.42 -66.05Z M70.38 -6.02C70.38 -4.03 71.05 -2.34 72.4 -0.94C73.75 0.45 75.73 1.14 78.33 1.14C80.88 1.14 82.8 0.44 84.09 -0.97C85.38 -2.37 86.02 -4.06 86.02 -6.02C86.02 -8.01 85.38 -9.7 84.09 -11.1C82.8 -12.49 80.88 -13.18 78.33 -13.18C75.73 -13.18 73.75 -12.5 72.4 -11.12C71.05 -9.74 70.38 -8.04 70.38 -6.02Z M100.66 -54.71C101.59 -54.71 102.52 -54.84 103.45 -55.09C104.37 -55.33 105.24 -55.88 106.06 -56.73C106.88 -57.58 107.29 -58.67 107.29 -59.99C107.29 -60.63 107.2 -61.23 107.03 -61.79C106.85 -62.34 106.54 -62.92 106.08 -63.5C105.63 -64.09 104.93 -64.56 103.97 -64.91C103.02 -65.26 101.86 -65.43 100.48 -65.43C95.62 -65.43 93.19 -63.63 93.19 -60.03C93.19 -58.97 93.46 -58.07 94 -57.3C94.54 -56.54 95.24 -55.99 96.11 -55.63C96.97 -55.28 97.77 -55.04 98.5 -54.91C99.24 -54.78 99.95 -54.71 100.66 -54.71ZM107.91 -43.07C107.91 -44.91 107.75 -46.09 107.45 -46.6C107.14 -47.12 106.47 -47.37 105.45 -47.37C105.36 -47.37 104.54 -47.29 102.99 -47.13C101.43 -46.97 99.95 -46.89 98.55 -46.89C96.44 -46.89 94.26 -47.05 92 -47.37C91.68 -47.2 91.35 -46.54 91.03 -45.4C90.71 -44.25 90.55 -42.93 90.55 -41.44C90.55 -40.47 90.6 -39.84 90.7 -39.55C90.81 -39.26 91.05 -39.07 91.43 -38.98C93.98 -38.86 95.7 -38.48 96.59 -37.84C97.49 -37.19 97.93 -36.09 97.93 -34.54L97.93 -10.94C97.93 -10.06 97.76 -9.38 97.4 -8.9C97.05 -8.42 96.31 -8.17 95.16 -8.17C94.05 -8.17 93.1 -8 92.31 -7.65C91.52 -7.29 91.12 -6.77 91.12 -6.06C91.12 -2.67 91.6 -0.53 92.57 0.35C96 0.12 99.69 0 103.65 0C107.45 0 110.68 0.12 113.31 0.35C114.28 -0.5 114.76 -2.64 114.76 -6.06C114.76 -6.77 114.37 -7.29 113.58 -7.65C112.79 -8 111.83 -8.17 110.72 -8.17C110.08 -8.17 109.55 -8.25 109.14 -8.42C108.73 -8.58 108.44 -8.82 108.28 -9.14C108.12 -9.46 108.02 -9.75 107.97 -10C107.93 -10.25 107.91 -10.59 107.91 -11.03Z M117.66 -23.51C117.66 -19.56 118.37 -15.97 119.77 -12.77C121.18 -9.56 123.05 -6.96 125.4 -4.97C127.74 -2.97 130.36 -1.45 133.26 -0.4C136.16 0.66 139.2 1.19 142.36 1.19C145.5 1.19 148.51 0.66 151.41 -0.4C154.31 -1.45 156.93 -2.97 159.26 -4.97C161.59 -6.96 163.45 -9.56 164.86 -12.77C166.27 -15.97 166.97 -19.56 166.97 -23.51C166.97 -27.47 166.27 -31.04 164.86 -34.23C163.45 -37.43 161.59 -40.01 159.26 -41.99C156.93 -43.97 154.31 -45.48 151.41 -46.54C148.51 -47.59 145.5 -48.12 142.36 -48.12C139.2 -48.12 136.16 -47.59 133.26 -46.54C130.36 -45.48 127.74 -43.97 125.4 -41.99C123.05 -40.01 121.18 -37.43 119.77 -34.23C118.37 -31.04 117.66 -27.47 117.66 -23.51ZM127.95 -23.51C127.95 -28.9 129.37 -33.11 132.21 -36.12C135.05 -39.14 138.41 -40.65 142.27 -40.65C144.12 -40.65 145.89 -40.28 147.59 -39.55C149.29 -38.82 150.82 -37.76 152.18 -36.39C153.54 -35.01 154.64 -33.21 155.46 -30.98C156.28 -28.75 156.69 -26.26 156.69 -23.51C156.69 -20.76 156.28 -18.27 155.46 -16.04C154.64 -13.81 153.54 -12 152.18 -10.61C150.82 -9.22 149.29 -8.16 147.59 -7.43C145.89 -6.69 144.12 -6.33 142.27 -6.33C138.41 -6.33 135.05 -7.84 132.21 -10.88C129.37 -13.91 127.95 -18.12 127.95 -23.51Z"></path></g><g id="SvgjsG2319" class="text" transform="translate(318.8091132643076, 121.9543483610068) scale(1)" light-content="false" fill="#121212"><path d="M-141.31 -16.1L-141.31 0L-135.22 0C-132.82 0 -130.78 -0.42 -129.11 -1.26C-127.43 -2.1 -126.16 -3.27 -125.31 -4.78C-124.46 -6.29 -124.04 -8.03 -124.04 -10.01C-124.04 -13.09 -125.05 -15.49 -127.08 -17.21C-129.11 -18.93 -132.08 -19.79 -136 -19.79L-143.92 -19.79L-143.92 -19.1L-143.41 -19.1C-142.57 -19.1 -142.01 -18.85 -141.73 -18.36C-141.45 -17.87 -141.31 -17.12 -141.31 -16.1ZM-131.37 -2.16C-132.54 -1.44 -133.85 -1.08 -135.31 -1.08C-136.19 -1.08 -137.16 -1.2 -138.22 -1.44L-138.22 -18.29C-137.18 -18.57 -136.23 -18.71 -135.37 -18.71C-133.87 -18.71 -132.54 -18.34 -131.37 -17.61C-130.2 -16.88 -129.29 -15.85 -128.63 -14.51C-127.97 -13.17 -127.64 -11.63 -127.64 -9.89C-127.64 -8.11 -127.97 -6.56 -128.63 -5.23C-129.29 -3.9 -130.2 -2.88 -131.37 -2.16Z M-120.37 -0.73C-119.46 -0.04 -118.39 0.3 -117.17 0.3C-116.19 0.3 -115.36 0.14 -114.69 -0.18C-114.01 -0.5 -113.49 -0.89 -113.13 -1.35L-112.98 -1.35L-111.93 0L-110.16 0L-110.16 -8.09C-110.16 -10.45 -110.64 -12.09 -111.61 -13.01C-112.58 -13.93 -113.93 -14.39 -115.64 -14.39C-116.66 -14.39 -117.58 -14.31 -118.39 -14.14C-119.2 -13.97 -119.78 -13.7 -120.14 -13.34C-120.48 -13 -120.69 -12.62 -120.77 -12.2C-120.85 -11.78 -120.89 -11.23 -120.89 -10.55L-119.45 -10.55C-119.23 -11.51 -118.86 -12.19 -118.33 -12.58C-117.8 -12.97 -117.1 -13.16 -116.24 -13.16C-115.25 -13.16 -114.49 -12.8 -113.97 -12.07C-113.45 -11.34 -113.19 -10.02 -113.19 -8.12L-113.97 -8.12C-116.42 -8.12 -118.33 -7.79 -119.69 -7.12C-121.05 -6.45 -121.73 -5.37 -121.73 -3.87C-121.73 -2.47 -121.28 -1.42 -120.37 -0.73ZM-113.19 -2.94C-113.87 -1.7 -114.79 -1.08 -115.94 -1.08C-116.7 -1.08 -117.33 -1.32 -117.82 -1.8C-118.31 -2.28 -118.55 -2.97 -118.55 -3.87C-118.55 -4.83 -118.16 -5.57 -117.37 -6.1C-116.58 -6.63 -115.44 -6.9 -113.97 -6.9L-113.19 -6.9Z M-104.61 -0.7C-103.93 -0.03 -103 0.3 -101.82 0.3C-100.31 0.3 -99.05 -0.11 -98.05 -0.93L-98.38 -1.59C-98.74 -1.39 -99.09 -1.23 -99.43 -1.11C-99.77 -0.99 -100.18 -0.93 -100.66 -0.93C-101.31 -0.93 -101.8 -1.15 -102.12 -1.6C-102.44 -2.05 -102.6 -2.75 -102.6 -3.69L-102.6 -12.86L-99.1 -12.86L-99.1 -14.09L-102.6 -14.09L-102.6 -18.59L-104.13 -18.59L-105.63 -16.79L-105.63 -14.09L-107.64 -14.09L-107.64 -12.86L-105.63 -12.86L-105.63 -3.72C-105.63 -2.38 -105.29 -1.37 -104.61 -0.7Z M-95.57 -0.73C-94.66 -0.04 -93.6 0.3 -92.38 0.3C-91.4 0.3 -90.57 0.14 -89.89 -0.18C-89.21 -0.5 -88.69 -0.89 -88.33 -1.35L-88.18 -1.35L-87.13 0L-85.37 0L-85.37 -8.09C-85.37 -10.45 -85.85 -12.09 -86.82 -13.01C-87.79 -13.93 -89.13 -14.39 -90.85 -14.39C-91.87 -14.39 -92.79 -14.31 -93.6 -14.14C-94.4 -13.97 -94.99 -13.7 -95.35 -13.34C-95.69 -13 -95.9 -12.62 -95.98 -12.2C-96.06 -11.78 -96.1 -11.23 -96.1 -10.55L-94.66 -10.55C-94.44 -11.51 -94.06 -12.19 -93.54 -12.58C-93.01 -12.97 -92.31 -13.16 -91.45 -13.16C-90.45 -13.16 -89.69 -12.8 -89.17 -12.07C-88.65 -11.34 -88.39 -10.02 -88.39 -8.12L-89.17 -8.12C-91.63 -8.12 -93.54 -7.79 -94.9 -7.12C-96.26 -6.45 -96.94 -5.37 -96.94 -3.87C-96.94 -2.47 -96.48 -1.42 -95.57 -0.73ZM-88.39 -2.94C-89.07 -1.7 -89.99 -1.08 -91.15 -1.08C-91.91 -1.08 -92.54 -1.32 -93.03 -1.8C-93.52 -2.28 -93.76 -2.97 -93.76 -3.87C-93.76 -4.83 -93.37 -5.57 -92.58 -6.1C-91.79 -6.63 -90.65 -6.9 -89.17 -6.9L-88.39 -6.9Z M-72.89 -16.1L-72.89 0L-66.81 0C-64.41 0 -62.37 -0.42 -60.69 -1.26C-59.01 -2.1 -57.75 -3.27 -56.9 -4.78C-56.05 -6.29 -55.63 -8.03 -55.63 -10.01C-55.63 -13.09 -56.64 -15.49 -58.67 -17.21C-60.7 -18.93 -63.67 -19.79 -67.59 -19.79L-75.5 -19.79L-75.5 -19.1L-74.99 -19.1C-74.15 -19.1 -73.59 -18.85 -73.31 -18.36C-73.03 -17.87 -72.89 -17.12 -72.89 -16.1ZM-62.96 -2.16C-64.13 -1.44 -65.44 -1.08 -66.9 -1.08C-67.78 -1.08 -68.75 -1.2 -69.81 -1.44L-69.81 -18.29C-68.77 -18.57 -67.82 -18.71 -66.96 -18.71C-65.46 -18.71 -64.13 -18.34 -62.96 -17.61C-61.79 -16.88 -60.87 -15.85 -60.21 -14.51C-59.55 -13.17 -59.22 -11.63 -59.22 -9.89C-59.22 -8.11 -59.55 -6.56 -60.21 -5.23C-60.87 -3.9 -61.79 -2.88 -62.96 -2.16Z M-52 -10.4L-52 0L-49 0L-49 -10.16C-49 -10.62 -49.01 -10.97 -49.03 -11.21C-48.73 -11.63 -48.34 -11.96 -47.85 -12.2C-47.36 -12.44 -46.81 -12.56 -46.21 -12.56C-45.71 -12.56 -45.26 -12.47 -44.85 -12.29C-44.44 -12.11 -44.12 -11.87 -43.9 -11.57L-42.62 -12.56C-42.8 -12.88 -42.96 -13.14 -43.11 -13.34C-43.26 -13.54 -43.44 -13.73 -43.66 -13.91C-44.12 -14.23 -44.75 -14.39 -45.55 -14.39C-46.33 -14.39 -47.05 -14.23 -47.7 -13.91C-48.35 -13.59 -48.88 -13.22 -49.3 -12.8C-49.48 -13.26 -49.77 -13.59 -50.16 -13.79C-50.54 -13.99 -51.11 -14.09 -51.85 -14.09L-54.4 -14.09L-54.4 -13.4L-54.1 -13.4C-53.26 -13.4 -52.7 -13.16 -52.42 -12.67C-52.14 -12.18 -52 -11.42 -52 -10.4Z M-39.77 -16.43C-39.43 -16.03 -38.99 -15.83 -38.45 -15.83C-38.01 -15.83 -37.66 -15.96 -37.4 -16.22C-37.14 -16.48 -37.01 -16.83 -37.01 -17.27C-37.01 -17.83 -37.18 -18.3 -37.52 -18.69C-37.86 -19.08 -38.3 -19.28 -38.84 -19.28C-39.26 -19.28 -39.6 -19.15 -39.87 -18.89C-40.14 -18.63 -40.28 -18.29 -40.28 -17.87C-40.28 -17.31 -40.11 -16.83 -39.77 -16.43ZM-39.8 -10.4L-39.8 0L-36.8 0L-36.8 -10.4C-36.8 -11.42 -36.88 -12.19 -37.04 -12.71C-37.2 -13.23 -37.47 -13.59 -37.85 -13.79C-38.23 -13.99 -38.78 -14.09 -39.5 -14.09L-42.41 -14.09L-42.41 -13.4L-41.9 -13.4C-41.06 -13.4 -40.5 -13.16 -40.22 -12.67C-39.94 -12.18 -39.8 -11.42 -39.8 -10.4Z M-32.03 -10.64L-27.27 0.3L-26.55 0.3L-20.34 -14.09L-21.87 -14.09L-26.04 -4.38L-28.71 -10.64C-29.34 -12.08 -30.1 -13.07 -30.97 -13.6C-31.84 -14.13 -32.84 -14.39 -33.98 -14.39C-34.18 -14.39 -34.38 -14.38 -34.58 -14.36C-34.78 -14.34 -34.93 -14.33 -35.03 -14.33L-35.03 -13.73C-34.37 -13.69 -33.83 -13.45 -33.4 -13C-32.97 -12.55 -32.51 -11.76 -32.03 -10.64Z M-15.89 -0.67C-14.92 -0.02 -13.76 0.3 -12.4 0.3C-11.16 0.3 -10.09 0.03 -9.2 -0.49C-8.31 -1.02 -7.56 -1.81 -6.94 -2.85L-7.6 -3.36C-8.16 -2.56 -8.77 -1.95 -9.43 -1.54C-10.09 -1.13 -10.89 -0.93 -11.83 -0.93C-13.03 -0.93 -13.97 -1.43 -14.66 -2.44C-15.35 -3.45 -15.69 -4.83 -15.69 -6.57L-6.61 -6.57L-6.55 -7.94C-6.55 -10 -7.08 -11.59 -8.14 -12.71C-9.2 -13.83 -10.72 -14.39 -12.7 -14.39C-13.92 -14.39 -14.99 -14.08 -15.92 -13.45C-16.85 -12.82 -17.57 -11.95 -18.08 -10.84C-18.59 -9.73 -18.84 -8.46 -18.84 -7.05C-18.84 -5.67 -18.59 -4.42 -18.09 -3.31C-17.59 -2.2 -16.86 -1.32 -15.89 -0.67ZM-9.7 -7.82L-15.69 -7.82C-15.69 -9.44 -15.41 -10.74 -14.84 -11.71C-14.27 -12.68 -13.56 -13.16 -12.7 -13.16C-10.7 -13.16 -9.7 -11.38 -9.7 -7.82Z M-2.8 -10.4L-2.8 0L0.22 0L0.22 -11.63C1.1 -12.55 2.06 -13.01 3.1 -13.01C4.02 -13.01 4.78 -12.68 5.38 -12.02C5.98 -11.36 6.28 -10.34 6.28 -8.96L6.28 0L9.28 0L9.28 -8.96C9.28 -12.58 7.53 -14.39 4.03 -14.39C2.43 -14.39 1.05 -13.9 -0.1 -12.92C-0.28 -13.32 -0.57 -13.62 -0.97 -13.81C-1.37 -14 -1.93 -14.09 -2.65 -14.09L-5.41 -14.09L-5.41 -13.4L-4.9 -13.4C-4.06 -13.4 -3.5 -13.16 -3.22 -12.67C-2.94 -12.18 -2.8 -11.42 -2.8 -10.4Z M21.78 -16.1L21.78 0L27.87 0C30.26 0 32.3 -0.42 33.98 -1.26C35.66 -2.1 36.92 -3.27 37.77 -4.78C38.62 -6.29 39.05 -8.03 39.05 -10.01C39.05 -13.09 38.03 -15.49 36.01 -17.21C33.98 -18.93 31 -19.79 27.09 -19.79L19.17 -19.79L19.17 -19.1L19.68 -19.1C20.52 -19.1 21.08 -18.85 21.36 -18.36C21.64 -17.87 21.78 -17.12 21.78 -16.1ZM31.72 -2.16C30.55 -1.44 29.23 -1.08 27.78 -1.08C26.9 -1.08 25.93 -1.2 24.87 -1.44L24.87 -18.29C25.91 -18.57 26.86 -18.71 27.72 -18.71C29.21 -18.71 30.55 -18.34 31.72 -17.61C32.89 -16.88 33.8 -15.85 34.46 -14.51C35.12 -13.17 35.45 -11.63 35.45 -9.89C35.45 -8.11 35.12 -6.56 34.46 -5.23C33.8 -3.9 32.89 -2.88 31.72 -2.16Z M44.52 -0.67C45.49 -0.02 46.65 0.3 48.01 0.3C49.25 0.3 50.32 0.03 51.2 -0.49C52.09 -1.02 52.85 -1.81 53.47 -2.85L52.81 -3.36C52.25 -2.56 51.64 -1.95 50.98 -1.54C50.32 -1.13 49.52 -0.93 48.58 -0.93C47.38 -0.93 46.44 -1.43 45.75 -2.44C45.06 -3.45 44.71 -4.83 44.71 -6.57L53.8 -6.57L53.86 -7.94C53.86 -10 53.33 -11.59 52.27 -12.71C51.21 -13.83 49.69 -14.39 47.71 -14.39C46.49 -14.39 45.42 -14.08 44.49 -13.45C43.56 -12.82 42.84 -11.95 42.33 -10.84C41.82 -9.73 41.57 -8.46 41.57 -7.05C41.57 -5.67 41.82 -4.42 42.32 -3.31C42.82 -2.2 43.55 -1.32 44.52 -0.67ZM50.71 -7.82L44.71 -7.82C44.71 -9.44 45 -10.74 45.57 -11.71C46.14 -12.68 46.85 -13.16 47.71 -13.16C49.71 -13.16 50.71 -11.38 50.71 -7.82Z M59.37 -0.67C60.39 -0.02 61.63 0.3 63.09 0.3C64.39 0.3 65.49 0.03 66.39 -0.49C67.29 -1.02 68.06 -1.81 68.7 -2.85L68.01 -3.36C67.45 -2.54 66.84 -1.93 66.18 -1.53C65.52 -1.13 64.69 -0.93 63.69 -0.93C62.29 -0.93 61.24 -1.48 60.54 -2.58C59.84 -3.68 59.49 -5.17 59.49 -7.05C59.49 -8.9 59.85 -10.39 60.56 -11.5C61.27 -12.61 62.3 -13.16 63.66 -13.16C64.8 -13.16 65.72 -12.84 66.42 -12.19C67.12 -11.54 67.51 -10.59 67.59 -9.35L68.25 -9.35C68.25 -10.65 68.21 -11.56 68.13 -12.07C68.05 -12.58 67.84 -13 67.5 -13.34C66.8 -14.04 65.33 -14.39 63.09 -14.39C61.63 -14.39 60.39 -14.07 59.37 -13.42C58.35 -12.77 57.6 -11.89 57.1 -10.78C56.6 -9.67 56.35 -8.42 56.35 -7.05C56.35 -5.67 56.6 -4.42 57.1 -3.31C57.6 -2.2 58.35 -1.32 59.37 -0.67Z M72.2 -16.43C72.54 -16.03 72.98 -15.83 73.52 -15.83C73.96 -15.83 74.31 -15.96 74.57 -16.22C74.83 -16.48 74.96 -16.83 74.96 -17.27C74.96 -17.83 74.79 -18.3 74.45 -18.69C74.11 -19.08 73.67 -19.28 73.13 -19.28C72.71 -19.28 72.37 -19.15 72.1 -18.89C71.83 -18.63 71.7 -18.29 71.7 -17.87C71.7 -17.31 71.87 -16.83 72.2 -16.43ZM72.17 -10.4L72.17 0L75.17 0L75.17 -10.4C75.17 -11.42 75.09 -12.19 74.93 -12.71C74.77 -13.23 74.5 -13.59 74.12 -13.79C73.74 -13.99 73.19 -14.09 72.47 -14.09L69.57 -14.09L69.57 -13.4L70.08 -13.4C70.92 -13.4 71.48 -13.16 71.76 -12.67C72.04 -12.18 72.17 -11.42 72.17 -10.4Z M79.31 -0.9C80.15 -0.1 81.72 0.3 84.02 0.3C85.64 0.3 86.95 -0.04 87.97 -0.73C88.99 -1.42 89.5 -2.39 89.5 -3.63C89.5 -4.61 89.18 -5.41 88.54 -6.04C87.9 -6.67 86.89 -7.27 85.52 -7.85L83.72 -8.6C82.18 -9.26 81.41 -10.08 81.41 -11.06C81.41 -11.68 81.66 -12.19 82.16 -12.58C82.66 -12.97 83.37 -13.16 84.29 -13.16C85.45 -13.16 86.36 -12.88 87.03 -12.31C87.7 -11.74 88.12 -10.94 88.3 -9.92L89.02 -9.92C89.02 -10.86 88.98 -11.56 88.9 -12.01C88.82 -12.46 88.61 -12.85 88.27 -13.19C87.43 -13.99 85.91 -14.39 83.69 -14.39C82.15 -14.39 80.9 -14.05 79.95 -13.36C79.01 -12.67 78.53 -11.7 78.53 -10.46C78.53 -9.52 78.84 -8.73 79.44 -8.09C80.05 -7.45 80.97 -6.89 82.19 -6.39L83.93 -5.64C84.85 -5.26 85.53 -4.87 85.97 -4.48C86.41 -4.09 86.62 -3.61 86.62 -3.03C86.62 -2.39 86.36 -1.88 85.83 -1.5C85.3 -1.12 84.5 -0.93 83.42 -0.93C82.2 -0.93 81.25 -1.21 80.58 -1.78C79.91 -2.35 79.49 -3.15 79.31 -4.17L78.59 -4.17C78.59 -3.25 78.63 -2.56 78.71 -2.1C78.79 -1.64 78.99 -1.24 79.31 -0.9Z M93.28 -16.43C93.62 -16.03 94.06 -15.83 94.6 -15.83C95.04 -15.83 95.39 -15.96 95.65 -16.22C95.91 -16.48 96.04 -16.83 96.04 -17.27C96.04 -17.83 95.87 -18.3 95.53 -18.69C95.19 -19.08 94.75 -19.28 94.21 -19.28C93.79 -19.28 93.45 -19.15 93.18 -18.89C92.91 -18.63 92.77 -18.29 92.77 -17.87C92.77 -17.31 92.94 -16.83 93.28 -16.43ZM93.25 -10.4L93.25 0L96.25 0L96.25 -10.4C96.25 -11.42 96.17 -12.19 96.01 -12.71C95.85 -13.23 95.58 -13.59 95.2 -13.79C94.82 -13.99 94.27 -14.09 93.55 -14.09L90.64 -14.09L90.64 -13.4L91.15 -13.4C91.99 -13.4 92.55 -13.16 92.83 -12.67C93.11 -12.18 93.25 -11.42 93.25 -10.4Z M102.66 -0.67C103.68 -0.02 104.88 0.3 106.26 0.3C107.64 0.3 108.84 -0.02 109.86 -0.67C110.88 -1.32 111.66 -2.2 112.2 -3.31C112.74 -4.42 113.01 -5.67 113.01 -7.05C113.01 -8.42 112.74 -9.67 112.2 -10.78C111.66 -11.89 110.88 -12.77 109.86 -13.42C108.84 -14.07 107.64 -14.39 106.26 -14.39C104.88 -14.39 103.68 -14.07 102.66 -13.42C101.64 -12.77 100.87 -11.89 100.33 -10.78C99.79 -9.67 99.52 -8.42 99.52 -7.05C99.52 -5.67 99.79 -4.42 100.33 -3.31C100.87 -2.2 101.64 -1.32 102.66 -0.67ZM108.87 -2.67C108.21 -1.51 107.34 -0.93 106.26 -0.93C105.18 -0.93 104.31 -1.51 103.65 -2.67C102.99 -3.83 102.66 -5.29 102.66 -7.05C102.66 -8.8 102.99 -10.26 103.65 -11.42C104.31 -12.58 105.18 -13.16 106.26 -13.16C107.34 -13.16 108.21 -12.58 108.87 -11.42C109.53 -10.26 109.86 -8.8 109.86 -7.05C109.86 -5.29 109.53 -3.83 108.87 -2.67Z M116.84 -10.4L116.84 0L119.87 0L119.87 -11.63C120.75 -12.55 121.71 -13.01 122.75 -13.01C123.67 -13.01 124.43 -12.68 125.03 -12.02C125.63 -11.36 125.93 -10.34 125.93 -8.96L125.93 0L128.93 0L128.93 -8.96C128.93 -12.58 127.18 -14.39 123.68 -14.39C122.08 -14.39 120.7 -13.9 119.54 -12.92C119.36 -13.32 119.07 -13.62 118.67 -13.81C118.27 -14 117.71 -14.09 116.99 -14.09L114.24 -14.09L114.24 -13.4L114.75 -13.4C115.58 -13.4 116.14 -13.16 116.42 -12.67C116.7 -12.18 116.84 -11.42 116.84 -10.4Z M133 -0.9C133.84 -0.1 135.41 0.3 137.71 0.3C139.33 0.3 140.65 -0.04 141.67 -0.73C142.69 -1.42 143.2 -2.39 143.2 -3.63C143.2 -4.61 142.88 -5.41 142.24 -6.04C141.6 -6.67 140.59 -7.27 139.21 -7.85L137.41 -8.6C135.87 -9.26 135.1 -10.08 135.1 -11.06C135.1 -11.68 135.35 -12.19 135.85 -12.58C136.35 -12.97 137.06 -13.16 137.98 -13.16C139.14 -13.16 140.05 -12.88 140.72 -12.31C141.39 -11.74 141.82 -10.94 142 -9.92L142.72 -9.92C142.72 -10.86 142.68 -11.56 142.6 -12.01C142.52 -12.46 142.31 -12.85 141.97 -13.19C141.13 -13.99 139.6 -14.39 137.38 -14.39C135.84 -14.39 134.6 -14.05 133.65 -13.36C132.7 -12.67 132.22 -11.7 132.22 -10.46C132.22 -9.52 132.53 -8.73 133.14 -8.09C133.75 -7.45 134.66 -6.89 135.88 -6.39L137.62 -5.64C138.54 -5.26 139.22 -4.87 139.66 -4.48C140.1 -4.09 140.32 -3.61 140.32 -3.03C140.32 -2.39 140.05 -1.88 139.52 -1.5C138.99 -1.12 138.19 -0.93 137.11 -0.93C135.89 -0.93 134.95 -1.21 134.28 -1.78C133.61 -2.35 133.18 -3.15 133 -4.17L132.28 -4.17C132.28 -3.25 132.32 -2.56 132.4 -2.1C132.48 -1.64 132.68 -1.24 133 -0.9Z"></path></g></g></g></svg>