<?xml version="1.0" encoding="UTF-8" standalone="yes"?>
<svg xmlns="http://www.w3.org/2000/svg" xmlns:xlink="http://www.w3.org/1999/xlink" width="204.966pt" height="74.261pt" version="1.1" viewBox="-116.844 779.489 204.966 74.261">
  <!--
	Exported with Concepts: Smarter Sketching
	Version: 1495 on iOS 16.1
	https://concepts.app/
	-->
  <title>A02F88FA-423A-4802-80FA-979DBEBED5F3</title>
  <desc>Drawing exported from Concepts: Smarter Sketching</desc>
  <defs></defs>
  <g id="Kuulakärkikynä" opacity="1.000">
    <path id="STROKE_a6187b6a-2417-4e8b-815b-eac0e3bf282e" opacity="1" fill="none" stroke="#adb5bd" stroke-width="4.000" stroke-opacity="1.000" stroke-linecap="round" stroke-linejoin="round" d="M -101.854 814.016 L -101.735 814.642 L -101.619 816.429 Q -101.568 816.704 -100.327 836.393 L -99.728 839.703 "></path>
    <path id="STROKE_f7a8aedc-1da8-4cef-ba62-27b82f1cc672" opacity="1" fill="none" stroke="#adb5bd" stroke-width="4.000" stroke-opacity="1.000" stroke-linecap="round" stroke-linejoin="round" d="M -90.849 841.031 Q -92.658 840.962 -93.434 840.951 Q -94.209 840.939 -94.296 840.950 Q -94.383 840.961 -96.906 840.934 Q -99.428 840.906 -100.792 840.860 Q -102.157 840.813 -103.132 840.820 Q -104.107 840.827 -104.795 840.951 Q -105.483 841.075 -108.211 841.094 "></path>
    <path id="STROKE_bf2bec1c-8fdc-4826-8db7-77c656e15828" opacity="1" fill="none" stroke="#adb5bd" stroke-width="4.000" stroke-opacity="1.000" stroke-linecap="round" stroke-linejoin="round" d="M -93.371 811.828 Q -94.570 811.543 -94.837 811.571 Q -97.230 811.546 -99.227 811.532 Q -101.225 811.519 -102.693 811.579 Q -104.161 811.639 -105.033 811.733 Q -105.904 811.828 -106.518 811.873 Q -107.132 811.918 -109.443 812.135 L -110.712 812.297 "></path>
    <path id="STROKE_18512601-3942-47bf-9964-250beb516969" opacity="1" fill="none" stroke="#adb5bd" stroke-width="4.000" stroke-opacity="1.000" stroke-linecap="round" stroke-linejoin="round" d="M -77.217 810.375 L -77.150 811.354 Q -77.247 815.827 -77.288 816.706 Q -77.328 817.584 -77.348 817.841 Q -77.368 818.097 -77.516 821.596 Q -77.663 825.095 -77.715 826.653 Q -77.767 828.212 -77.912 832.817 L -77.884 834.656 "></path>
    <path id="STROKE_5e7f521d-ad95-4a15-b220-b03125ca32b0" opacity="1" fill="none" stroke="#adb5bd" stroke-width="4.000" stroke-opacity="1.000" stroke-linecap="round" stroke-linejoin="round" d="M -80.531 838.047 Q -79.833 838.229 -79.579 838.500 L -76.873 838.822 Q -75.740 838.894 -74.389 839.066 Q -73.038 839.238 -72.048 839.500 "></path>
    <path id="STROKE_54843371-adaa-464d-a317-90029b618170" opacity="1" fill="none" stroke="#adb5bd" stroke-width="4.000" stroke-opacity="1.000" stroke-linecap="round" stroke-linejoin="round" d="M -77.279 822.391 L -76.938 822.233 L -76.140 821.405 Q -73.329 819.053 -72.777 818.703 Q -72.226 818.352 -70.698 817.958 Q -69.170 817.565 -69.056 817.551 Q -68.942 817.537 -68.284 817.588 Q -67.626 817.639 -67.299 817.725 Q -66.972 817.812 -66.608 818.000 Q -66.244 818.189 -65.689 818.681 Q -65.135 819.173 -64.380 820.302 Q -63.625 821.430 -63.356 821.943 Q -63.087 822.455 -62.665 823.723 Q -62.244 824.992 -61.897 826.999 Q -61.551 829.007 -61.462 830.346 Q -61.373 831.684 -61.402 834.696 L -61.251 836.844 "></path>
    <path id="STROKE_b5bc1a1d-b089-43fe-9824-67149641b320" opacity="1" fill="none" stroke="#adb5bd" stroke-width="4.000" stroke-opacity="1.000" stroke-linecap="round" stroke-linejoin="round" d="M -63.981 838.500 L -63.306 838.586 Q -63.133 838.736 -61.678 838.731 Q -60.224 838.727 -56.368 838.749 L -55.561 838.969 "></path>
    <path id="STROKE_8f6d5321-0d1b-471c-ab8e-8e04d9dbd62e" opacity="1" fill="none" stroke="#adb5bd" stroke-width="4.000" stroke-opacity="1.000" stroke-linecap="round" stroke-linejoin="round" d="M 46.952 792.500 Q 46.558 793.135 46.127 793.508 Q 45.695 793.880 44.216 795.560 Q 42.736 797.239 42.174 798.097 Q 41.611 798.954 40.962 800.150 Q 40.313 801.345 40.211 801.529 Q 40.109 801.713 39.279 804.077 Q 38.449 806.441 38.173 807.472 Q 37.898 808.504 37.600 810.341 Q 37.303 812.178 37.225 812.983 Q 37.146 813.787 36.857 816.545 Q 36.568 819.303 36.445 820.570 Q 36.322 821.837 36.194 823.022 Q 36.065 824.207 36.048 824.440 Q 36.031 824.672 35.644 827.748 Q 35.501 828.169 35.238 829.391 "></path>
    <path id="STROKE_589dba99-9d1b-482e-811c-e3b0be6313fa" opacity="1" fill="none" stroke="#adb5bd" stroke-width="4.000" stroke-opacity="1.000" stroke-linecap="round" stroke-linejoin="round" d="M 44.638 816.578 Q 44.169 816.691 43.275 816.513 L 42.397 816.621 Q 41.260 816.850 40.882 816.948 Q 40.504 817.046 36.489 817.894 Q 32.474 818.743 30.826 819.198 Q 29.179 819.654 29.066 819.711 Q 28.954 819.768 28.809 819.776 Q 28.665 819.785 27.755 820.031 "></path>
    <path id="STROKE_01f992ec-5d4e-4aeb-aa92-8ec718e6fa93" opacity="1" fill="none" stroke="#adb5bd" stroke-width="4.000" stroke-opacity="1.000" stroke-linecap="round" stroke-linejoin="round" d="M 77.383 815.266 Q 77.444 817.230 77.419 820.145 Q 77.394 823.060 77.382 823.115 Q 77.370 823.171 77.326 824.861 Q 77.281 826.552 77.320 828.938 "></path>
    <path id="STROKE_f3c3061b-6237-4eeb-91bc-5fea147de4e0" opacity="1" fill="none" stroke="#adb5bd" stroke-width="4.000" stroke-opacity="1.000" stroke-linecap="round" stroke-linejoin="round" d="M 82.552 828.406 Q 81.980 828.544 81.264 828.700 Q 80.547 828.856 79.514 828.971 Q 78.481 829.085 73.673 829.922 "></path>
    <path id="STROKE_5c19c368-1acd-447d-92d6-5aa353e312ef" opacity="1" fill="none" stroke="#adb5bd" stroke-width="4.000" stroke-opacity="1.000" stroke-linecap="round" stroke-linejoin="round" d="M 83.990 814.859 Q 83.414 814.726 83.283 814.680 Q 83.151 814.635 82.876 814.521 Q 82.602 814.407 80.099 814.291 Q 77.596 814.175 76.365 814.204 Q 75.135 814.233 74.536 814.294 Q 73.937 814.354 73.170 814.443 Q 72.403 814.532 72.195 814.495 Q 71.988 814.457 70.692 814.469 "></path>
    <path id="STROKE_9daa2339-e44c-44ab-b4d9-44c920899cee" opacity="1" fill="none" stroke="#adb5bd" stroke-width="4.000" stroke-opacity="1.000" stroke-linecap="round" stroke-linejoin="round" d="M 75.403 798.547 L 75.646 798.407 L 76.597 798.233 L 78.529 797.940 L 79.425 797.727 Q 79.696 797.692 80.372 797.422 Q 81.047 797.153 81.410 796.921 Q 81.773 796.690 82.167 796.282 Q 82.561 795.875 82.921 795.281 Q 83.282 794.688 83.364 794.100 Q 83.447 793.512 83.268 792.084 L 82.350 791.108 Q 81.612 790.447 80.039 789.741 L 79.264 789.624 L 77.616 789.655 L 76.805 789.811 Q 76.047 790.115 74.928 790.871 Q 73.808 791.626 73.105 792.421 Q 72.403 793.216 72.059 793.901 Q 71.715 794.586 71.348 796.147 Q 71.541 797.370 71.665 797.617 Q 71.789 797.864 72.314 798.335 Q 72.328 798.442 73.359 798.713 Q 74.390 798.983 75.361 798.914 Q 76.333 798.846 76.861 798.779 Q 77.390 798.712 78.372 798.340 Q 79.355 797.969 80.885 797.156 "></path>
    <path id="STROKE_b4602e80-288f-4e64-b480-2885a79b1df8" opacity="1" fill="none" stroke="#adb5bd" stroke-width="4.000" stroke-opacity="1.000" stroke-linecap="round" stroke-linejoin="round" d="M -103.097 797.047 L -102.854 796.907 L -101.903 796.733 L -99.971 796.440 L -99.075 796.227 Q -98.804 796.192 -98.128 795.922 Q -97.453 795.653 -97.090 795.421 Q -96.727 795.190 -96.333 794.782 Q -95.939 794.375 -95.579 793.781 Q -95.218 793.188 -95.136 792.600 Q -95.053 792.012 -95.232 790.584 L -96.150 789.608 Q -96.888 788.947 -98.461 788.241 L -99.236 788.124 L -100.884 788.155 L -101.695 788.311 Q -102.453 788.615 -103.572 789.371 Q -104.692 790.126 -105.395 790.921 Q -106.097 791.716 -106.441 792.401 Q -106.785 793.086 -107.152 794.647 Q -106.959 795.870 -106.835 796.117 Q -106.711 796.364 -106.186 796.835 Q -106.172 796.942 -105.141 797.213 Q -104.110 797.483 -103.139 797.414 Q -102.167 797.346 -101.639 797.279 Q -101.110 797.212 -100.128 796.840 Q -99.145 796.469 -97.615 795.656 "></path>
    <path id="STROKE_98bebd80-4c4e-448e-b9ea-aa8e924ce373" opacity="1" fill="none" stroke="#adb5bd" stroke-width="4.000" stroke-opacity="1.000" stroke-linecap="round" stroke-linejoin="round" d="M 50.576 815.375 L 50.654 815.585 Q 50.661 815.790 50.158 818.224 Q 49.656 820.658 49.533 821.647 Q 49.410 822.635 49.358 823.786 Q 49.306 824.936 49.343 825.666 Q 49.380 826.395 49.473 826.905 Q 49.565 827.415 49.651 827.595 Q 49.736 827.774 49.873 828.312 Q 50.009 828.849 50.175 829.163 Q 50.341 829.478 51.164 830.244 Q 51.987 831.010 52.692 831.279 Q 53.397 831.548 53.421 831.566 Q 53.445 831.584 54.254 831.669 Q 55.062 831.754 55.786 831.630 Q 56.510 831.505 57.113 831.210 Q 57.717 830.914 59.030 829.817 Q 60.343 828.720 60.632 828.362 Q 60.920 828.005 61.495 827.074 Q 62.070 826.143 62.414 825.311 Q 62.758 824.479 63.012 823.565 Q 63.266 822.651 63.391 822.174 Q 63.515 821.697 63.583 821.533 Q 63.651 821.368 63.892 820.283 Q 64.133 819.197 64.382 818.027 Q 64.247 818.203 64.193 819.054 Q 64.138 819.904 64.110 820.424 Q 64.081 820.943 63.974 822.353 Q 63.867 823.763 63.746 825.277 Q 63.626 826.791 63.520 828.282 Q 63.414 829.773 63.331 830.772 Q 63.248 831.771 63.182 832.834 Q 63.115 833.896 62.923 835.850 Q 62.731 837.803 62.431 839.873 Q 62.132 841.943 61.897 842.781 Q 61.663 843.618 61.394 844.271 Q 61.126 844.923 60.665 845.667 Q 60.205 846.411 59.867 846.788 Q 59.529 847.165 59.518 847.206 Q 59.507 847.247 58.789 847.882 Q 58.072 848.516 57.211 848.921 Q 56.350 849.327 55.228 849.504 Q 54.105 849.681 52.245 849.616 Q 51.539 849.565 50.636 849.379 Q 49.732 849.193 49.420 849.110 Q 49.108 849.027 47.074 847.688 "></path>
    <path id="STROKE_7be3a8ff-eb9b-4e4f-bc37-4e11a299b3af" opacity="1" fill="none" stroke="#adb5bd" stroke-width="4.000" stroke-opacity="1.000" stroke-linecap="round" stroke-linejoin="round" d="M -14.580 826.391 Q -14.024 826.613 -13.701 826.836 Q -10.337 827.597 -8.527 827.602 Q -6.717 827.608 -5.620 827.342 Q -4.524 827.077 -3.898 826.766 Q -3.272 826.454 -2.714 826.049 Q -2.155 825.643 -2.020 825.507 Q -1.885 825.370 -1.520 824.781 L -1.250 824.046 L -1.182 821.821 Q -1.357 821.223 -2.071 820.127 L -2.740 819.417 L -3.275 819.044 Q -3.356 818.873 -4.655 818.490 Q -5.955 818.107 -6.971 818.105 Q -7.988 818.103 -9.008 818.290 L -10.972 819.073 L -12.157 819.770 L -14.598 821.927 Q -15.907 823.485 -16.630 824.610 Q -17.353 825.736 -17.386 825.779 Q -17.420 825.821 -17.914 826.991 Q -18.408 828.161 -18.647 829.245 Q -18.886 830.329 -18.899 830.921 Q -18.912 831.513 -18.783 832.235 Q -18.655 832.956 -18.341 833.497 Q -18.028 834.039 -17.547 834.547 Q -17.065 835.055 -16.844 835.189 Q -16.623 835.323 -16.071 835.687 Q -15.520 836.050 -14.687 836.406 Q -13.854 836.762 -13.547 836.845 Q -13.240 836.928 -11.666 837.082 Q -10.092 837.236 -10.002 837.250 Q -9.912 837.263 -9.056 837.213 Q -8.201 837.163 -7.466 837.052 Q -6.731 836.941 -6.300 836.880 Q -5.869 836.818 -2.176 836.129 Q -2.095 836.036 0.323 835.750 "></path>
    <path id="STROKE_73610d52-0dfc-41e8-982b-d1afbd8cf70f" opacity="1" fill="none" stroke="#adb5bd" stroke-width="4.000" stroke-opacity="1.000" stroke-linecap="round" stroke-linejoin="round" d="M 24.834 819.344 Q 24.829 819.468 24.818 819.544 Q 24.807 819.621 24.798 819.671 Q 24.789 819.721 24.021 820.707 Q 23.252 821.693 21.904 823.354 Q 20.556 825.015 18.666 827.524 Q 16.776 830.034 16.484 830.384 Q 16.192 830.734 15.781 831.260 Q 15.370 831.785 14.378 832.923 Q 14.234 833.047 12.454 835.134 Q 12.516 835.214 12.453 835.531 "></path>
    <path id="STROKE_4a35ecb4-9f52-44a4-9d84-4160d1e200ab" opacity="1" fill="none" stroke="#adb5bd" stroke-width="4.000" stroke-opacity="1.000" stroke-linecap="round" stroke-linejoin="round" d="M 24.626 836.719 L 24.694 836.157 Q 24.135 834.965 23.539 834.025 Q 22.943 833.084 22.379 832.407 Q 21.816 831.730 21.145 830.966 Q 20.474 830.201 19.808 829.499 Q 19.143 828.796 18.691 828.379 Q 18.240 827.962 17.695 827.379 Q 17.150 826.795 16.898 826.443 Q 16.645 826.090 16.205 825.619 Q 15.766 825.147 15.282 824.680 Q 14.799 824.213 14.433 823.706 Q 14.066 823.199 13.683 822.801 Q 13.301 822.402 12.264 821.499 Q 11.882 821.104 11.733 820.888 Q 11.584 820.672 11.337 820.478 Q 11.090 820.284 10.914 820.078 Q 10.738 819.872 10.530 819.674 Q 10.322 819.476 9.473 818.281 "></path>
    <path id="STROKE_8b810160-029a-43f7-940f-405af68f45fb" opacity="1" fill="none" stroke="#adb5bd" stroke-width="4.000" stroke-opacity="1.000" stroke-linecap="round" stroke-linejoin="round" d="M -28.487 819.234 Q -28.730 819.215 -28.835 819.244 Q -28.940 819.273 -29.437 818.997 Q -29.935 818.722 -30.698 818.603 Q -31.462 818.485 -32.378 818.437 Q -33.294 818.389 -34.161 818.449 Q -35.029 818.510 -35.310 818.555 Q -35.591 818.600 -36.335 818.805 Q -37.079 819.009 -38.321 819.581 Q -39.564 820.153 -40.802 820.962 Q -42.586 822.540 -43.635 823.836 Q -44.683 825.132 -44.755 825.230 Q -44.826 825.327 -45.617 826.758 Q -46.395 828.650 -46.839 829.934 Q -47.282 831.219 -47.380 831.581 Q -47.478 831.942 -47.591 832.667 Q -47.704 833.393 -47.685 833.817 Q -47.667 834.242 -47.679 834.302 Q -47.691 834.362 -47.578 834.826 Q -47.465 835.289 -47.248 835.761 Q -47.032 836.234 -46.550 836.901 Q -46.069 837.569 -45.212 838.156 Q -44.354 838.743 -43.838 838.967 Q -43.321 839.192 -41.291 839.434 Q -39.261 839.677 -38.685 839.677 Q -38.108 839.678 -37.081 839.532 Q -36.053 839.386 -35.255 839.220 Q -34.456 839.055 -33.581 838.873 Q -32.706 838.691 -30.290 837.777 L -28.883 837.281 "></path>
    <path id="STROKE_e3e61a9e-acc7-44a4-a2bd-9760dbbdc494" opacity="1" fill="none" stroke="#adb5bd" stroke-width="4.000" stroke-opacity="1.000" stroke-linecap="round" stroke-linejoin="round" d="M -26.298 801.656 Q -26.275 801.609 -26.326 799.123 L -26.510 798.999 Q -26.925 798.873 -27.239 798.787 Q -27.416 798.523 -27.721 802.735 Q -28.025 806.947 -28.199 810.233 Q -28.372 813.518 -28.567 814.990 Q -28.762 816.461 -28.920 817.337 Q -29.077 818.214 -29.248 818.983 Q -29.418 819.751 -29.519 821.347 Q -29.619 822.943 -29.648 825.617 Q -29.676 828.291 -29.685 828.319 Q -29.695 828.347 -29.596 829.578 Q -29.498 830.808 -29.380 831.818 Q -29.263 832.829 -29.199 833.400 Q -29.136 833.971 -29.154 834.463 Q -29.173 834.954 -29.147 835.007 Q -29.120 835.060 -29.559 836.910 Q -29.629 837.002 -29.856 838.487 L -30.092 838.938 "></path>
    <path id="STROKE_00675d4b-60fe-4bb7-9e7c-7419728876af" opacity="1.000" fill="none" stroke="#0d6efd" stroke-width="4.000" stroke-opacity="1.000" stroke-linecap="round" stroke-linejoin="round" d="M -103.854 809.516 L -103.735 810.142 L -103.619 811.929 Q -103.568 812.204 -102.327 831.893 L -101.728 835.203 "></path>
    <path id="STROKE_96ecb691-a791-496f-9c51-895a4cf981a5" opacity="1.000" fill="none" stroke="#0d6efd" stroke-width="4.000" stroke-opacity="1.000" stroke-linecap="round" stroke-linejoin="round" d="M -92.849 836.531 Q -94.658 836.462 -95.434 836.451 Q -96.209 836.439 -96.296 836.450 Q -96.383 836.461 -98.906 836.434 Q -101.428 836.406 -102.792 836.360 Q -104.157 836.313 -105.132 836.320 Q -106.107 836.327 -106.795 836.451 Q -107.483 836.575 -110.211 836.594 "></path>
    <path id="STROKE_66b0c50a-4f0d-48f2-84b6-3c6f3357fdb3" opacity="1.000" fill="none" stroke="#0d6efd" stroke-width="4.000" stroke-opacity="1.000" stroke-linecap="round" stroke-linejoin="round" d="M -95.371 807.328 Q -96.570 807.043 -96.837 807.071 Q -99.230 807.046 -101.227 807.032 Q -103.225 807.019 -104.693 807.079 Q -106.161 807.139 -107.033 807.233 Q -107.904 807.328 -108.518 807.373 Q -109.132 807.418 -111.443 807.635 L -112.712 807.797 "></path>
    <path id="STROKE_a33175c7-28cf-4c8a-92e1-2ff66a12af7f" opacity="1.000" fill="none" stroke="#0d6efd" stroke-width="4.000" stroke-opacity="1.000" stroke-linecap="round" stroke-linejoin="round" d="M -79.217 805.875 L -79.150 806.854 Q -79.247 811.327 -79.288 812.206 Q -79.328 813.084 -79.348 813.341 Q -79.368 813.597 -79.516 817.096 Q -79.663 820.595 -79.715 822.153 Q -79.767 823.712 -79.912 828.317 L -79.884 830.156 "></path>
    <path id="STROKE_b01d5538-96b1-4830-b652-8a7c9eea25dc" opacity="1.000" fill="none" stroke="#0d6efd" stroke-width="4.000" stroke-opacity="1.000" stroke-linecap="round" stroke-linejoin="round" d="M -82.531 833.547 Q -81.833 833.729 -81.579 834.000 L -78.873 834.322 Q -77.740 834.394 -76.389 834.566 Q -75.038 834.738 -74.048 835.000 "></path>
    <path id="STROKE_115c8c30-c345-4dfc-b252-df8982a29b78" opacity="1.000" fill="none" stroke="#0d6efd" stroke-width="4.000" stroke-opacity="1.000" stroke-linecap="round" stroke-linejoin="round" d="M -79.279 817.891 L -78.938 817.733 L -78.140 816.905 Q -75.329 814.553 -74.777 814.203 Q -74.226 813.852 -72.698 813.458 Q -71.170 813.065 -71.056 813.051 Q -70.942 813.037 -70.284 813.088 Q -69.626 813.139 -69.299 813.225 Q -68.972 813.312 -68.608 813.500 Q -68.244 813.689 -67.689 814.181 Q -67.135 814.673 -66.380 815.802 Q -65.625 816.930 -65.356 817.443 Q -65.087 817.955 -64.665 819.223 Q -64.244 820.492 -63.897 822.499 Q -63.551 824.507 -63.462 825.846 Q -63.373 827.184 -63.402 830.196 L -63.251 832.344 "></path>
    <path id="STROKE_622f0fa1-b9af-4af2-af69-a9c37b0b8148" opacity="1.000" fill="none" stroke="#0d6efd" stroke-width="4.000" stroke-opacity="1.000" stroke-linecap="round" stroke-linejoin="round" d="M -65.981 834.000 L -65.306 834.086 Q -65.133 834.236 -63.678 834.231 Q -62.224 834.227 -58.368 834.249 L -57.561 834.469 "></path>
    <path id="STROKE_fff7ee18-9a7d-457d-b93c-3df5c258a29d" opacity="1.000" fill="none" stroke="#0d6efd" stroke-width="4.000" stroke-opacity="1.000" stroke-linecap="round" stroke-linejoin="round" d="M 44.952 788.000 Q 44.558 788.635 44.127 789.008 Q 43.695 789.380 42.216 791.060 Q 40.736 792.739 40.174 793.597 Q 39.611 794.454 38.962 795.650 Q 38.313 796.845 38.211 797.029 Q 38.109 797.213 37.279 799.577 Q 36.449 801.941 36.173 802.972 Q 35.898 804.004 35.600 805.841 Q 35.303 807.678 35.225 808.483 Q 35.146 809.287 34.857 812.045 Q 34.568 814.803 34.445 816.070 Q 34.322 817.337 34.194 818.522 Q 34.065 819.707 34.048 819.940 Q 34.031 820.172 33.644 823.248 Q 33.501 823.669 33.238 824.891 "></path>
    <path id="STROKE_ffc0b20f-6e45-4fc0-b072-1efdf5b1b773" opacity="1.000" fill="none" stroke="#0d6efd" stroke-width="4.000" stroke-opacity="1.000" stroke-linecap="round" stroke-linejoin="round" d="M 42.638 812.078 Q 42.169 812.191 41.275 812.013 L 40.397 812.121 Q 39.260 812.350 38.882 812.448 Q 38.504 812.546 34.489 813.394 Q 30.474 814.243 28.826 814.698 Q 27.179 815.154 27.066 815.211 Q 26.954 815.268 26.809 815.276 Q 26.665 815.285 25.755 815.531 "></path>
    <path id="STROKE_add2dcbf-f8ec-4b69-88f0-66794bff163e" opacity="1.000" fill="none" stroke="#0d6efd" stroke-width="4.000" stroke-opacity="1.000" stroke-linecap="round" stroke-linejoin="round" d="M 75.383 810.766 Q 75.444 812.730 75.419 815.645 Q 75.394 818.560 75.382 818.615 Q 75.370 818.671 75.326 820.361 Q 75.281 822.052 75.320 824.438 "></path>
    <path id="STROKE_0bb69bf9-9e82-41a8-8add-d2465dd4f708" opacity="1.000" fill="none" stroke="#0d6efd" stroke-width="4.000" stroke-opacity="1.000" stroke-linecap="round" stroke-linejoin="round" d="M 80.552 823.906 Q 79.980 824.044 79.264 824.200 Q 78.547 824.356 77.514 824.471 Q 76.481 824.585 71.673 825.422 "></path>
    <path id="STROKE_ce2805a9-3078-4ba4-942f-3990acfa53ce" opacity="1.000" fill="none" stroke="#0d6efd" stroke-width="4.000" stroke-opacity="1.000" stroke-linecap="round" stroke-linejoin="round" d="M 81.990 810.359 Q 81.414 810.226 81.283 810.180 Q 81.151 810.135 80.876 810.021 Q 80.602 809.907 78.099 809.791 Q 75.596 809.675 74.365 809.704 Q 73.135 809.733 72.536 809.794 Q 71.937 809.854 71.170 809.943 Q 70.403 810.032 70.195 809.995 Q 69.988 809.957 68.692 809.969 "></path>
    <path id="STROKE_2c9e10e1-7a86-44db-b7b2-15931e7b0e5d" opacity="1.000" fill="none" stroke="#0d6efd" stroke-width="4.000" stroke-opacity="1.000" stroke-linecap="round" stroke-linejoin="round" d="M 73.403 794.047 L 73.646 793.907 L 74.597 793.733 L 76.529 793.440 L 77.425 793.227 Q 77.696 793.192 78.372 792.922 Q 79.047 792.653 79.410 792.421 Q 79.773 792.190 80.167 791.782 Q 80.561 791.375 80.921 790.781 Q 81.282 790.188 81.364 789.600 Q 81.447 789.012 81.268 787.584 L 80.350 786.608 Q 79.612 785.947 78.039 785.241 L 77.264 785.124 L 75.616 785.155 L 74.805 785.311 Q 74.047 785.615 72.928 786.371 Q 71.808 787.126 71.105 787.921 Q 70.403 788.716 70.059 789.401 Q 69.715 790.086 69.348 791.647 Q 69.541 792.870 69.665 793.117 Q 69.789 793.364 70.314 793.835 Q 70.328 793.942 71.359 794.213 Q 72.390 794.483 73.361 794.414 Q 74.333 794.346 74.861 794.279 Q 75.390 794.212 76.372 793.840 Q 77.355 793.469 78.885 792.656 "></path>
    <path id="STROKE_ae08f52e-7f88-4854-b1a6-844ba0f71e24" opacity="1.000" fill="none" stroke="#0d6efd" stroke-width="4.000" stroke-opacity="1.000" stroke-linecap="round" stroke-linejoin="round" d="M -105.097 792.547 L -104.854 792.407 L -103.903 792.233 L -101.971 791.940 L -101.075 791.727 Q -100.804 791.692 -100.128 791.422 Q -99.453 791.153 -99.090 790.921 Q -98.727 790.690 -98.333 790.282 Q -97.939 789.875 -97.579 789.281 Q -97.218 788.688 -97.136 788.100 Q -97.053 787.512 -97.232 786.084 L -98.150 785.108 Q -98.888 784.447 -100.461 783.741 L -101.236 783.624 L -102.884 783.655 L -103.695 783.811 Q -104.453 784.115 -105.572 784.871 Q -106.692 785.626 -107.395 786.421 Q -108.097 787.216 -108.441 787.901 Q -108.785 788.586 -109.152 790.147 Q -108.959 791.370 -108.835 791.617 Q -108.711 791.864 -108.186 792.335 Q -108.172 792.442 -107.141 792.713 Q -106.110 792.983 -105.139 792.914 Q -104.167 792.846 -103.639 792.779 Q -103.110 792.712 -102.128 792.340 Q -101.145 791.969 -99.615 791.156 "></path>
    <path id="STROKE_557f11bc-b99c-41f8-a14d-61d1c282de74" opacity="1.000" fill="none" stroke="#0d6efd" stroke-width="4.000" stroke-opacity="1.000" stroke-linecap="round" stroke-linejoin="round" d="M 48.576 810.875 L 48.654 811.085 Q 48.661 811.290 48.158 813.724 Q 47.656 816.158 47.533 817.147 Q 47.410 818.135 47.358 819.286 Q 47.306 820.436 47.343 821.166 Q 47.380 821.895 47.473 822.405 Q 47.565 822.915 47.651 823.095 Q 47.736 823.274 47.873 823.812 Q 48.009 824.349 48.175 824.663 Q 48.341 824.978 49.164 825.744 Q 49.987 826.510 50.692 826.779 Q 51.397 827.048 51.421 827.066 Q 51.445 827.084 52.254 827.169 Q 53.062 827.254 53.786 827.130 Q 54.510 827.005 55.113 826.710 Q 55.717 826.414 57.030 825.317 Q 58.343 824.220 58.632 823.862 Q 58.920 823.505 59.495 822.574 Q 60.070 821.643 60.414 820.811 Q 60.758 819.979 61.012 819.065 Q 61.266 818.151 61.391 817.674 Q 61.515 817.197 61.583 817.033 Q 61.651 816.868 61.892 815.783 Q 62.133 814.697 62.382 813.527 Q 62.247 813.703 62.193 814.554 Q 62.138 815.404 62.110 815.924 Q 62.081 816.443 61.974 817.853 Q 61.867 819.263 61.746 820.777 Q 61.626 822.291 61.520 823.782 Q 61.414 825.273 61.331 826.272 Q 61.248 827.271 61.182 828.334 Q 61.115 829.396 60.923 831.350 Q 60.731 833.303 60.431 835.373 Q 60.132 837.443 59.897 838.281 Q 59.663 839.118 59.394 839.771 Q 59.126 840.423 58.665 841.167 Q 58.205 841.911 57.867 842.288 Q 57.529 842.665 57.518 842.706 Q 57.507 842.747 56.789 843.382 Q 56.072 844.016 55.211 844.421 Q 54.350 844.827 53.228 845.004 Q 52.105 845.181 50.245 845.116 Q 49.539 845.065 48.636 844.879 Q 47.732 844.693 47.420 844.610 Q 47.108 844.527 45.074 843.188 "></path>
    <path id="STROKE_a3991701-4136-4402-90bb-eca175a191b7" opacity="1.000" fill="none" stroke="#0d6efd" stroke-width="4.000" stroke-opacity="1.000" stroke-linecap="round" stroke-linejoin="round" d="M -16.580 821.891 Q -16.024 822.113 -15.701 822.336 Q -12.337 823.097 -10.527 823.102 Q -8.717 823.108 -7.620 822.842 Q -6.524 822.577 -5.898 822.266 Q -5.272 821.954 -4.714 821.549 Q -4.155 821.143 -4.020 821.007 Q -3.885 820.870 -3.520 820.281 L -3.250 819.546 L -3.182 817.321 Q -3.357 816.723 -4.071 815.627 L -4.740 814.917 L -5.275 814.544 Q -5.356 814.373 -6.655 813.990 Q -7.955 813.607 -8.971 813.605 Q -9.988 813.603 -11.008 813.790 L -12.972 814.573 L -14.157 815.270 L -16.598 817.427 Q -17.907 818.985 -18.630 820.110 Q -19.353 821.236 -19.386 821.279 Q -19.420 821.321 -19.914 822.491 Q -20.408 823.661 -20.647 824.745 Q -20.886 825.829 -20.899 826.421 Q -20.912 827.013 -20.783 827.735 Q -20.655 828.456 -20.341 828.997 Q -20.028 829.539 -19.547 830.047 Q -19.065 830.555 -18.844 830.689 Q -18.623 830.823 -18.071 831.187 Q -17.520 831.550 -16.687 831.906 Q -15.854 832.262 -15.547 832.345 Q -15.240 832.428 -13.666 832.582 Q -12.092 832.736 -12.002 832.750 Q -11.912 832.763 -11.056 832.713 Q -10.201 832.663 -9.466 832.552 Q -8.731 832.441 -8.300 832.380 Q -7.869 832.318 -4.176 831.629 Q -4.095 831.536 -1.677 831.250 "></path>
    <path id="STROKE_1801c075-72c9-42ce-ab52-523a255e7969" opacity="1.000" fill="none" stroke="#0d6efd" stroke-width="4.000" stroke-opacity="1.000" stroke-linecap="round" stroke-linejoin="round" d="M 22.834 814.844 Q 22.829 814.968 22.818 815.044 Q 22.807 815.121 22.798 815.171 Q 22.789 815.221 22.021 816.207 Q 21.252 817.193 19.904 818.854 Q 18.556 820.515 16.666 823.024 Q 14.776 825.534 14.484 825.884 Q 14.192 826.234 13.781 826.760 Q 13.370 827.285 12.378 828.423 Q 12.234 828.547 10.454 830.634 Q 10.516 830.714 10.453 831.031 "></path>
    <path id="STROKE_fd0422c8-bdc5-48ce-98c2-fcc1112d66b4" opacity="1.000" fill="none" stroke="#0d6efd" stroke-width="4.000" stroke-opacity="1.000" stroke-linecap="round" stroke-linejoin="round" d="M 22.626 832.219 L 22.694 831.657 Q 22.135 830.465 21.539 829.525 Q 20.943 828.584 20.379 827.907 Q 19.816 827.230 19.145 826.466 Q 18.474 825.701 17.808 824.999 Q 17.143 824.296 16.691 823.879 Q 16.240 823.462 15.695 822.879 Q 15.150 822.295 14.898 821.943 Q 14.645 821.590 14.205 821.119 Q 13.766 820.647 13.282 820.180 Q 12.799 819.713 12.433 819.206 Q 12.066 818.699 11.683 818.301 Q 11.301 817.902 10.264 816.999 Q 9.882 816.604 9.733 816.388 Q 9.584 816.172 9.337 815.978 Q 9.090 815.784 8.914 815.578 Q 8.738 815.372 8.530 815.174 Q 8.322 814.976 7.473 813.781 "></path>
    <path id="STROKE_29c372e0-faf3-4021-bbd9-bee1441df5cf" opacity="1.000" fill="none" stroke="#0d6efd" stroke-width="4.000" stroke-opacity="1.000" stroke-linecap="round" stroke-linejoin="round" d="M -30.487 814.734 Q -30.730 814.715 -30.835 814.744 Q -30.940 814.773 -31.437 814.497 Q -31.935 814.222 -32.698 814.103 Q -33.462 813.985 -34.378 813.937 Q -35.294 813.889 -36.161 813.949 Q -37.029 814.010 -37.310 814.055 Q -37.591 814.100 -38.335 814.305 Q -39.079 814.509 -40.321 815.081 Q -41.564 815.653 -42.802 816.462 Q -44.586 818.040 -45.635 819.336 Q -46.683 820.632 -46.755 820.730 Q -46.826 820.827 -47.617 822.258 Q -48.395 824.150 -48.839 825.434 Q -49.282 826.719 -49.380 827.081 Q -49.478 827.442 -49.591 828.167 Q -49.704 828.893 -49.685 829.317 Q -49.667 829.742 -49.679 829.802 Q -49.691 829.862 -49.578 830.326 Q -49.465 830.789 -49.248 831.261 Q -49.032 831.734 -48.550 832.401 Q -48.069 833.069 -47.212 833.656 Q -46.354 834.243 -45.838 834.467 Q -45.321 834.692 -43.291 834.934 Q -41.261 835.177 -40.685 835.177 Q -40.108 835.178 -39.081 835.032 Q -38.053 834.886 -37.255 834.720 Q -36.456 834.555 -35.581 834.373 Q -34.706 834.191 -32.290 833.277 L -30.883 832.781 "></path>
    <path id="STROKE_b01b9207-41ae-4a06-98fd-c1156c300c48" opacity="1.000" fill="none" stroke="#0d6efd" stroke-width="4.000" stroke-opacity="1.000" stroke-linecap="round" stroke-linejoin="round" d="M -28.298 797.156 Q -28.275 797.109 -28.326 794.623 L -28.510 794.499 Q -28.925 794.373 -29.239 794.287 Q -29.416 794.023 -29.721 798.235 Q -30.025 802.447 -30.199 805.733 Q -30.372 809.018 -30.567 810.490 Q -30.762 811.961 -30.920 812.837 Q -31.077 813.714 -31.248 814.483 Q -31.418 815.251 -31.519 816.847 Q -31.619 818.443 -31.648 821.117 Q -31.676 823.791 -31.685 823.819 Q -31.695 823.847 -31.596 825.078 Q -31.498 826.308 -31.380 827.318 Q -31.263 828.329 -31.199 828.900 Q -31.136 829.471 -31.154 829.963 Q -31.173 830.454 -31.147 830.507 Q -31.120 830.560 -31.559 832.410 Q -31.629 832.502 -31.856 833.987 L -32.092 834.438 "></path>
  </g>
</svg>