<?xml version="1.0" standalone="no"?>
<!DOCTYPE svg PUBLIC "-//W3C//DTD SVG 20010904//EN"
 "http://www.w3.org/TR/2001/REC-SVG-20010904/DTD/svg10.dtd">
<svg version="1.0" xmlns="http://www.w3.org/2000/svg"
 width="700.000000pt" height="700.000000pt" viewBox="0 0 700.000000 700.000000"
 preserveAspectRatio="xMidYMid meet">
<metadata>
Created by potrace 1.14, written by Peter Selinger 2001-2017
</metadata>
<g transform="translate(0.000000,700.000000) scale(0.100000,-0.100000)"
fill="#000000" stroke="none">
<path d="M3219 6996 c-2 -2 -40 -7 -84 -10 -572 -42 -1163 -255 -1655 -594
-626 -432 -1101 -1076 -1324 -1797 -59 -190 -93 -346 -130 -595 -27 -183 -28
-668 -2 -840 2 -14 10 -63 16 -110 12 -80 55 -287 79 -375 6 -22 11 -43 11
-47 0 -4 21 -67 46 -140 236 -691 651 -1256 1244 -1694 60 -44 258 -174 266
-174 2 0 21 -11 42 -24 79 -50 288 -150 440 -212 181 -73 511 -165 677 -189
11 -2 52 -8 90 -14 150 -23 313 -34 490 -35 118 0 325 10 375 18 14 3 48 7 75
11 105 13 203 30 295 51 36 9 73 17 83 19 48 10 246 69 305 91 37 14 86 32
110 40 178 63 498 232 700 372 295 203 555 449 773 732 104 135 187 260 271
405 18 31 154 305 169 340 100 236 193 554 223 760 4 23 8 50 10 61 2 11 7 47
11 79 4 33 9 71 11 85 22 139 22 587 0 731 -3 13 -7 50 -11 83 -4 32 -9 69
-11 82 -5 32 -11 61 -19 109 -34 191 -118 472 -203 680 -38 94 -197 399 -259
498 -78 124 -217 313 -299 407 -144 166 -370 381 -509 485 -22 16 -44 33 -50
38 -93 76 -328 221 -500 308 -359 181 -791 312 -1140 344 -38 4 -83 9 -100 12
-36 5 -511 14 -516 9z m456 -200 c78 -6 215 -23 265 -32 14 -2 52 -8 85 -14
162 -27 446 -109 590 -171 11 -4 49 -20 85 -35 65 -26 244 -114 310 -151 505
-288 919 -694 1209 -1187 153 -259 271 -548 344 -843 30 -117 44 -187 72 -363
4 -25 10 -81 21 -219 11 -137 5 -466 -11 -549 -1 -10 -6 -48 -11 -87 -4 -38
-8 -72 -9 -75 -1 -3 -5 -30 -10 -60 -10 -64 -8 -52 -24 -120 -97 -420 -232
-746 -449 -1080 -49 -75 -157 -227 -171 -240 -4 -3 -24 -27 -46 -55 -66 -83
-85 -104 -206 -224 -138 -139 -156 -155 -284 -257 -279 -221 -618 -407 -950
-519 -114 -39 -241 -76 -305 -90 -8 -2 -37 -8 -65 -15 -63 -14 -194 -36 -265
-45 -30 -3 -71 -8 -90 -10 -188 -22 -515 -22 -685 1 -69 9 -229 33 -255 39
-14 3 -41 8 -60 11 -66 12 -287 71 -340 91 -8 3 -19 7 -25 9 -82 20 -337 131
-489 212 -275 147 -535 341 -761 567 -214 214 -326 356 -497 630 -39 63 -142
262 -178 345 -18 41 -38 89 -45 105 -39 90 -122 346 -140 435 -2 8 -9 38 -15
65 -6 28 -14 61 -16 75 -2 14 -9 48 -14 75 -9 47 -25 162 -36 259 -9 73 -11
481 -3 547 4 35 10 95 14 133 3 38 8 72 9 75 2 3 7 30 10 60 5 44 15 96 51
260 2 9 17 63 34 121 315 1102 1214 1966 2331 2240 166 41 241 55 348 66 37 3
70 8 73 10 3 2 57 6 120 10 63 3 115 7 116 8 5 5 292 -2 368 -8z"/>
<path d="M3268 6674 c-2 -1 -46 -5 -98 -8 -52 -3 -104 -8 -115 -10 -11 -2 -42
-7 -70 -10 -509 -71 -1007 -278 -1420 -590 -463 -351 -813 -808 -1026 -1341
-13 -33 -24 -62 -24 -65 0 -3 -3 -9 -6 -15 -4 -5 -20 -55 -37 -110 -106 -343
-146 -610 -146 -955 0 -146 9 -314 18 -370 3 -14 7 -47 11 -74 25 -203 104
-503 180 -691 119 -292 265 -546 451 -784 84 -108 314 -350 414 -436 292 -251
655 -459 1015 -583 152 -52 397 -115 440 -113 2 0 18 -4 35 -9 17 -5 61 -12
98 -16 37 -3 70 -8 73 -10 27 -16 444 -24 619 -11 566 40 1152 261 1614 609
478 361 838 842 1051 1408 31 81 24 59 70 215 33 112 66 255 80 350 3 22 8 54
10 70 34 198 40 649 10 815 -2 14 -6 45 -9 70 -3 25 -8 56 -11 70 -2 13 -7 41
-10 61 -3 20 -10 50 -15 68 -5 17 -9 34 -9 36 -5 48 -64 266 -82 297 -5 10 -9
24 -9 31 0 8 -23 72 -52 143 -281 706 -826 1299 -1503 1636 -60 30 -159 74
-220 98 -60 23 -119 46 -130 51 -107 45 -440 127 -593 145 -26 3 -58 7 -72 9
-86 13 -177 18 -342 20 -104 1 -189 1 -190 -1z"/>
</g>
</svg>
